<?xml version="1.0" encoding="utf-8"?>
<!-- Generator: Adobe Illustrator 23.0.1, SVG Export Plug-In . SVG Version: 6.00 Build 0)  -->
<svg version="1.1" xmlns="http://www.w3.org/2000/svg" xmlns:xlink="http://www.w3.org/1999/xlink" x="0px" y="0px"
	 viewBox="0 0 1080 1080" style="enable-background:new 0 0 1080 1080;" xml:space="preserve">
<style type="text/css">
	.st0{display:none;}
	.st1{display:inline;fill:url(#SVGID_1_);}
	.st2{opacity:0;fill:url(#SVGID_2_);}
	.st3{fill:url(#SVGID_3_);}
	.st4{fill:none;stroke:#00FFC3;stroke-miterlimit:10;}
	.st5{display:none;fill:none;stroke:#000000;stroke-miterlimit:10;}
	.st6{display:inline;fill:none;stroke:#000000;stroke-miterlimit:10;}
	.st7{display:inline;}
	.st8{fill:#FFB600;}
	.st9{display:inline;fill:#FFB600;}
	.st10{fill:url(#SVGID_4_);}
	.st11{fill:url(#SVGID_5_);}
	.st12{fill:url(#SVGID_6_);}
	.st13{fill:url(#SVGID_7_);}
	.st14{fill:url(#SVGID_8_);}
	.st15{fill:url(#SVGID_9_);}
	.st16{fill:url(#SVGID_10_);}
	.st17{display:inline;fill:url(#SVGID_11_);}
	.st18{display:inline;fill:url(#SVGID_12_);}
	.st19{fill:url(#SVGID_13_);}
	.st20{fill:url(#SVGID_14_);}
	.st21{fill:url(#SVGID_15_);}
	.st22{fill:url(#SVGID_16_);}
	.st23{fill:url(#SVGID_17_);}
	.st24{display:none;fill:#00F9FF;}
	.st25{font-family:'VALORANT-Regular';}
	.st26{font-size:145.32px;}
	.st27{fill:#00F9FF;}
	.st28{display:none;fill:url(#SVGID_18_);}
	.st29{fill:url(#SVGID_19_);}
	.st30{fill:url(#SVGID_20_);}
	.st31{fill:url(#SVGID_21_);}
	.st32{fill:url(#SVGID_22_);}
	.st33{display:inline;fill:url(#SVGID_23_);}
	.st34{display:inline;fill:url(#SVGID_24_);}
	.st35{font-size:36px;}
	.st36{fill:#FFFFFF;}
	.st37{fill:url(#SVGID_25_);}
	.st38{fill:url(#SVGID_26_);}
	.st39{fill:url(#SVGID_27_);}
	.st40{fill:url(#SVGID_28_);}
	.st41{fill:url(#SVGID_29_);}
	.st42{fill:url(#SVGID_30_);}
	.st43{fill:url(#SVGID_31_);}
	.st44{fill:url(#SVGID_32_);}
	.st45{fill:url(#SVGID_33_);}
	.st46{fill:url(#SVGID_34_);}
	.st47{fill:url(#SVGID_35_);}
	.st48{fill:url(#SVGID_36_);}
	.st49{fill:url(#SVGID_37_);}
	.st50{fill:url(#SVGID_38_);}
	.st51{fill:url(#SVGID_39_);}
	.st52{fill:url(#SVGID_40_);}
	.st53{fill:url(#SVGID_41_);}
	.st54{fill:url(#SVGID_42_);}
	.st55{fill:url(#SVGID_43_);}
	.st56{fill:url(#SVGID_44_);}
	.st57{fill:url(#SVGID_45_);}
	.st58{fill:url(#SVGID_46_);}
	.st59{fill:url(#SVGID_47_);}
	.st60{fill:url(#SVGID_48_);}
	.st61{fill:url(#SVGID_49_);}
	.st62{fill:url(#SVGID_50_);}
	.st63{fill:url(#SVGID_51_);}
	.st64{fill:url(#SVGID_52_);}
	.st65{display:inline;fill:none;stroke:url(#SVGID_53_);stroke-miterlimit:10;}
	.st66{display:inline;fill:none;stroke:url(#SVGID_54_);stroke-miterlimit:10;}
	.st67{display:inline;fill:none;stroke:url(#SVGID_55_);stroke-miterlimit:10;}
</style>
<g id="Layer_1" class="st0">
	<linearGradient id="SVGID_1_" gradientUnits="userSpaceOnUse" x1="0.5" y1="0.5" x2="1080.5" y2="1080.5">
		<stop  offset="0" style="stop-color:#001B33"/>
		<stop  offset="1" style="stop-color:#003333"/>
	</linearGradient>
	<rect x="0.5" y="0.5" class="st1" width="1080" height="1080"/>
	<linearGradient id="SVGID_2_" gradientUnits="userSpaceOnUse" x1="0.5" y1="0.5" x2="1080.5" y2="1080.5">
		<stop  offset="0" style="stop-color:#001B33"/>
		<stop  offset="1" style="stop-color:#003333"/>
	</linearGradient>
	<rect x="0.5" y="0.5" class="st2" width="1080" height="1080"/>
	<linearGradient id="SVGID_3_" gradientUnits="userSpaceOnUse" x1="-259.5" y1="-259.5" x2="1340.5" y2="1340.5">
		<stop  offset="0" style="stop-color:#001B33"/>
		<stop  offset="1" style="stop-color:#003333"/>
	</linearGradient>
	<rect x="-483.5" y="-35.5" class="st3" width="2048" height="1152"/>
	<rect x="-77" y="371.5" class="st4" width="1235" height="338"/>
</g>
<g id="Layer_2">
	<rect x="619.3" y="319" class="st5" width="92.9" height="456.5"/>
	
		<rect x="567.2" y="430.4" transform="matrix(-1.836970e-16 1 -1 -1.836970e-16 1223.2766 -4.0851)" class="st5" width="92.9" height="358.5"/>
	<polygon class="st5" points="508.5,619.3 434.4,563.2 619.3,319 720.5,338.8 	"/>
	<polygon class="st5" points="619.3,319 434.4,563.1 434.4,656.1 619.3,656.1 619.3,775.6 712.2,775.6 712.2,656.1 792.9,656.1 
		792.9,563.1 712.2,563.1 712.2,319 	"/>
	<g class="st0">
		<polygon class="st6" points="152.7,478.1 223.1,385.1 658.9,385.1 658.9,478.1 		"/>
		<polygon class="st6" points="366,563.1 366,487.6 273.1,487.6 273.1,563.1 204.7,563.1 261.9,487.6 145.5,487.6 88.2,563.1 
			88.2,656.1 273.1,656.1 273.1,775.6 366,775.6 366,656.1 497.8,656.1 497.8,563.1 		"/>
		<path class="st6" d="M640.7,563.1v119.5h0c-14.7,0-26.6-11.9-26.6-26.6v-92.9h-92.9v119.5v0c0,51.3,41.6,92.9,92.9,92.9h0h26.6h0
			c51.3,0,92.9-41.6,92.9-92.9v0V563.1H640.7z"/>
		<path class="st6" d="M854.2,775.6V656.1h0c14.7,0,26.6,11.9,26.6,26.6v92.9h92.9V656.1v0c0-51.3-41.6-92.9-92.9-92.9h0h-26.6h0
			c-51.3,0-92.9,41.6-92.9,92.9v0v119.5H854.2z"/>
	</g>
	<g class="st0">
		<g class="st7">
			<path class="st8" d="M660.9,392.1v78.9H175.8l59.8-78.9H660.9 M667.9,385.1H232.1l-70.4,92.9h506.2V385.1L667.9,385.1z"/>
		</g>
		<g class="st7">
			<path class="st8" d="M368.1,494.6v68.6c0,3.9,3.1,7,7,7h124.7v78.9H375.1c-3.9,0-7,3.1-7,7v112.5h-78.9V656.1c0-3.9-3.1-7-7-7
				H104.3v-83.6l53.7-70.9h98.9l-48.7,64.4c-1.6,2.1-1.9,5-0.7,7.3s3.6,3.9,6.3,3.9h68.3c3.9,0,7-3.1,7-7v-68.6H368.1 M375.1,487.6
				h-92.9v75.6h-68.3l57.1-75.6H154.5l-57.2,75.6v92.9h184.9v119.5h92.9V656.1h131.7v-92.9H375.1V487.6L375.1,487.6z"/>
		</g>
		<g class="st7">
			<path class="st8" d="M735.7,570.1v112.5v85.9h-85.9h-26.6c-47.4,0-85.9-38.6-85.9-85.9V570.1h78.9v85.9
				c0,18.5,15.1,33.6,33.6,33.6c3.9,0,7-3.1,7-7V570.1H735.7 M742.7,563.1h-92.9v119.5c-14.7,0-26.6-11.9-26.6-26.6v-92.9h-92.9
				v119.5v0c0,51.3,41.6,92.9,92.9,92.9h0h26.6h92.9v-92.9V563.1L742.7,563.1z"/>
		</g>
		<g class="st7">
			<path class="st8" d="M889.8,570.1c47.4,0,85.9,38.6,85.9,85.9v112.5h-78.9v-85.9c0-18.5-15.1-33.6-33.6-33.6c-3.9,0-7,3.1-7,7
				v112.5h-78.9V656.1v-85.9h85.9H889.8 M889.8,563.1L889.8,563.1h-26.6h-92.9v92.9v119.5h92.9V656.1c14.7,0,26.6,11.9,26.6,26.6
				v92.9h92.9V656.1v0C982.7,604.7,941.1,563.1,889.8,563.1L889.8,563.1z"/>
		</g>
	</g>
	<g>
		<g class="st0">
			<path class="st9" d="M411.6,315.9c-11,0-19.4-3.1-25.4-9.2c-6-6.1-8.9-14.7-8.9-25.7h14.6c0,7,1.7,12.5,5.2,16.4
				c3.5,3.9,8.4,5.8,14.8,5.8c6.2,0,11-1.9,14.3-5.8c3.4-3.9,5-9.3,5-16.4v-66.4h14.6V281c0,11.1-3,19.6-9.1,25.7
				C430.8,312.8,422.4,315.9,411.6,315.9z M405.7,228v-13.4h32.8V228H405.7z"/>
			<path class="st9" d="M497.5,315.9c-21.4,0-32.1-11.2-32.1-33.5v-67.8h14.6v67.8c0,6.7,1.4,11.7,4.3,15c2.9,3.4,7.3,5.1,13.4,5.1
				c11.8,0,17.7-6.7,17.7-20.1v-67.8h14.6v67.8c0,11.2-2.8,19.5-8.3,25.1C516.3,313.1,508.2,315.9,497.5,315.9z"/>
			<path class="st9" d="M578.7,315.9c-5.7,0-11-0.5-15.9-1.4c-4.9-0.9-9.5-2.3-13.7-4.1l1.8-14.2c5.2,2.2,10.1,3.9,14.9,5
				c4.8,1.1,9.5,1.7,14,1.7c6.6,0,11.4-1.1,14.6-3.4c3.2-2.3,4.8-5.8,4.8-10.5c0-6-3-10.3-9.1-13.1l-17.3-7.9
				c-6.8-3.1-12-6.8-15.6-11.2c-3.6-4.4-5.4-9.8-5.4-16.2c0-8.7,2.6-15.5,7.9-20.3c5.2-4.8,12.7-7.2,22.3-7.2c6.7,0,12.6,1,17.8,3
				c5.2,2,10.1,5.2,14.9,9.6l-9.8,10c-4.1-3.4-8-5.8-11.6-7.3c-3.6-1.5-7.3-2.3-11.2-2.3c-4.8,0-8.6,1.2-11.2,3.5
				c-2.6,2.3-4,5.8-4,10.3c0,3.2,0.9,5.9,2.6,7.9c1.7,2,4.3,3.9,7.7,5.4l14.6,6.9c7.4,3.5,13,7.4,16.9,11.7c3.8,4.4,5.8,10,5.8,16.8
				c0,9-2.9,15.8-8.8,20.4C599.6,313.6,590.7,315.9,578.7,315.9z"/>
			<path class="st9" d="M630,228v-13.4h73.1V228H630z M659.3,314.4v-99.8h14.6v99.8H659.3z"/>
		</g>
	</g>
	<g class="st0">
		<g class="st7">
			<linearGradient id="SVGID_4_" gradientUnits="userSpaceOnUse" x1="188.4877" y1="432.2108" x2="706.7234" y2="432.2108">
				<stop  offset="0" style="stop-color:#00F9FF"/>
				<stop  offset="1" style="stop-color:#00FFC3"/>
			</linearGradient>
			<path class="st10" d="M698.8,392.8l-10.2,78.8H204.1l70-78.8H698.8 M706.7,385.8H270.9l-82.4,92.8h506.2L706.7,385.8L706.7,385.8
				z"/>
		</g>
		<g class="st7">
			<linearGradient id="SVGID_5_" gradientUnits="userSpaceOnUse" x1="100.9079" y1="631.8156" x2="522.5056" y2="631.8156">
				<stop  offset="0" style="stop-color:#00F9FF"/>
				<stop  offset="1" style="stop-color:#00FFC3"/>
			</linearGradient>
			<path class="st11" d="M392.6,495.1l-8.8,67.5c-0.3,2,0.4,4,1.7,5.5c1.3,1.5,3.2,2.4,5.3,2.4h123.8l-10.2,78.8H378.7
				c-3.5,0-6.5,2.6-6.9,6.1L357,768.6h-78.8l14.5-111.4c0.3-2-0.4-4-1.7-5.5c-1.3-1.5-3.2-2.4-5.3-2.4H108.9l10.8-82.7l63.5-71.5
				h97.7l-56.6,63.8c-1.8,2.1-2.3,5-1.1,7.5c1.1,2.5,3.6,4.1,6.4,4.1h68.3c3.5,0,6.5-2.6,6.9-6.1l9-69.3H392.6 M400.6,488.1h-92.9
				l-9.8,75.4h-68.3l66.9-75.4H180l-67,75.4l-12.1,92.8h184.9l-15.5,119.3h92.9l15.5-119.3h131.7l12.1-92.8H390.8L400.6,488.1
				L400.6,488.1z"/>
		</g>
		<g class="st7">
			<linearGradient id="SVGID_6_" gradientUnits="userSpaceOnUse" x1="529.6912" y1="669.5339" x2="758.4205" y2="669.5339">
				<stop  offset="0" style="stop-color:#00F9FF"/>
				<stop  offset="1" style="stop-color:#00FFC3"/>
			</linearGradient>
			<path class="st12" d="M750.5,570.5L736,681.9l-11.3,86.7h-86.8h-26.6c-22.7,0-42.8-8.7-56.7-24.6c-14.1-16-20.2-37.4-17.2-60.3
				l14.7-113.2H631l-11,84.9c-1.2,9.1,1.3,17.8,7.1,24.3c5.7,6.5,13.9,10.1,23,10.1c3.5,0,6.5-2.6,6.9-6.1l14.7-113.2H750.5
				 M758.4,563.5h-92.9L650,682.8c-14.7,0-25-11.9-23.1-26.5l12.1-92.8H546l-15.5,119.3l0,0c-6.7,51.2,29.5,92.8,80.9,92.8h0h26.6
				h92.9l12.1-92.8L758.4,563.5L758.4,563.5z"/>
		</g>
		<g class="st7">
			<linearGradient id="SVGID_7_" gradientUnits="userSpaceOnUse" x1="758.4157" y1="669.5339" x2="987.1449" y2="669.5339">
				<stop  offset="0" style="stop-color:#00F9FF"/>
				<stop  offset="1" style="stop-color:#00FFC3"/>
			</linearGradient>
			<path class="st13" d="M905.5,570.5c22.7,0,42.8,8.7,56.7,24.6c14.1,16,20.2,37.4,17.2,60.3l-14.7,113.2h-78.8l11-84.9
				c1.2-9.1-1.3-17.8-7.1-24.3c-5.7-6.5-13.9-10.1-23-10.1c-3.5,0-6.5,2.6-6.9,6.1l-14.7,113.2h-78.8l14.5-111.4l11.3-86.7h86.8
				H905.5 M905.5,563.5L905.5,563.5h-26.6H786l-12.1,92.8l-15.5,119.3h92.9l15.5-119.3h0c14.7,0,25,11.9,23.1,26.5l-12.1,92.8h92.9
				l15.5-119.3v0C993,605,956.8,563.5,905.5,563.5L905.5,563.5z"/>
		</g>
	</g>
	<g>
		<g>
			<linearGradient id="SVGID_8_" gradientUnits="userSpaceOnUse" x1="188.4877" y1="432.2108" x2="706.7234" y2="432.2108">
				<stop  offset="0" style="stop-color:#00F9FF"/>
				<stop  offset="1" style="stop-color:#00FFC3"/>
			</linearGradient>
			<polygon class="st14" points="188.5,478.6 270.9,385.8 706.7,385.8 694.7,478.6 			"/>
		</g>
		<g>
			<linearGradient id="SVGID_9_" gradientUnits="userSpaceOnUse" x1="525.7704" y1="669.5339" x2="758.4205" y2="669.5339">
				<stop  offset="0" style="stop-color:#00F9FF"/>
				<stop  offset="1" style="stop-color:#00FFC3"/>
			</linearGradient>
			<polygon class="st15" points="575.4,775.6 637.9,775.6 730.8,775.6 742.9,682.8 758.4,563.5 665.5,563.5 646,713.7 622.8,687.4 
				638.9,563.5 546,563.5 525.8,719 			"/>
		</g>
		<g>
			<linearGradient id="SVGID_10_" gradientUnits="userSpaceOnUse" x1="758.4205" y1="669.5339" x2="991.0705" y2="669.5339">
				<stop  offset="0" style="stop-color:#00F9FF"/>
				<stop  offset="1" style="stop-color:#00FFC3"/>
			</linearGradient>
			<polygon class="st16" points="941.4,563.5 878.9,563.5 786,563.5 773.9,656.3 758.4,775.6 851.4,775.6 870.9,625.4 894,651.6 
				877.9,775.6 970.8,775.6 991.1,620.1 			"/>
		</g>
		<g class="st0">
			<linearGradient id="SVGID_11_" gradientUnits="userSpaceOnUse" x1="758.0648" y1="669.5339" x2="987.6578" y2="669.5339">
				<stop  offset="0" style="stop-color:#00F9FF"/>
				<stop  offset="1" style="stop-color:#00FFC3"/>
			</linearGradient>
			<polygon class="st17" points="866.5,656.3 866.5,656.3 851,775.6 758.1,775.6 773.6,656.3 785.6,563.5 878.6,563.5 917.3,563.5 
				987.7,643.6 970.5,775.6 877.6,775.6 889.6,682.8 			"/>
		</g>
		<g class="st0">
			<linearGradient id="SVGID_12_" gradientUnits="userSpaceOnUse" x1="758.4157" y1="669.5339" x2="987.1449" y2="669.5339">
				<stop  offset="0" style="stop-color:#00F9FF"/>
				<stop  offset="1" style="stop-color:#00FFC3"/>
			</linearGradient>
			<path class="st18" d="M851.4,775.6l15.5-119.3h0c14.7,0,25,11.9,23.1,26.5l-12.1,92.8h92.9l15.5-119.3v0
				c6.7-51.2-29.5-92.8-80.9-92.8h0h-26.6H786l-12.1,92.8l-15.5,119.3H851.4z"/>
		</g>
		<g>
			<linearGradient id="SVGID_13_" gradientUnits="userSpaceOnUse" x1="100.9079" y1="645.5957" x2="522.5057" y2="645.5957">
				<stop  offset="0" style="stop-color:#00F9FF"/>
				<stop  offset="1" style="stop-color:#00FFC3"/>
			</linearGradient>
			<polygon class="st19" points="304.1,515.6 297.8,563.5 229.5,563.5 272,515.6 155.5,515.6 113,563.5 100.9,656.3 285.8,656.3 
				270.2,775.6 363.2,775.6 378.7,656.3 510.4,656.3 522.5,563.5 390.8,563.5 397,515.6 			"/>
		</g>
	</g>
	<g class="st0">
		<g class="st7">
			<linearGradient id="SVGID_14_" gradientUnits="userSpaceOnUse" x1="338.4311" y1="320.1518" x2="596.4865" y2="578.2072">
				<stop  offset="0" style="stop-color:#00F9FF"/>
				<stop  offset="1" style="stop-color:#00FFC2"/>
			</linearGradient>
			<path class="st20" d="M701.2,392.1l-10.7,78.9H206.1l70.5-78.9H701.2 M709.3,385.1H273.5l-83,92.9h506.2L709.3,385.1L709.3,385.1
				z"/>
		</g>
		<g class="st7">
			<linearGradient id="SVGID_15_" gradientUnits="userSpaceOnUse" x1="186.4115" y1="483.0898" x2="435.3813" y2="732.0595">
				<stop  offset="0" style="stop-color:#00F9FF"/>
				<stop  offset="1" style="stop-color:#00FFC2"/>
			</linearGradient>
			<path class="st21" d="M394.5,494.6l-9.2,67.6l-1.1,7.9h8H516l-10.7,78.9H379.6h-6.1l-0.8,6.1l-15.4,113.4h-78.8L293.6,657
				l1.1-7.9h-8H109.9l11.2-82.9l64-71.6h97.7l-57,63.9l-10.4,11.7H231h68.3h6.1l0.8-6.1l9.4-69.5H394.5 M402.5,487.6h-92.9
				l-10.3,75.6H231l67.4-75.6H181.9l-67.5,75.6l-12.6,92.9h184.9l-16.2,119.5h92.9l16.2-119.5h131.7l12.6-92.9H392.2L402.5,487.6
				L402.5,487.6z"/>
		</g>
		<g class="st7">
			<linearGradient id="SVGID_16_" gradientUnits="userSpaceOnUse" x1="554.7343" y1="555.8722" x2="727.5352" y2="728.6732">
				<stop  offset="0" style="stop-color:#00F9FF"/>
				<stop  offset="1" style="stop-color:#00FFC2"/>
			</linearGradient>
			<path class="st22" d="M751.9,570.1l-15.1,111.5c-6.5,47.9-50.7,86.9-98.6,86.9h-26.6c-22.6,0-42.7-8.7-56.5-24.5
				c-14-16-20-37.5-16.9-60.5l15.4-113.4h78.8l-11.5,85c-1.2,9.2,1.2,17.8,7,24.4c5.7,6.5,13.8,10.1,22.9,10.1h6.1l0.8-6.1
				l15.4-113.4H751.9 M759.9,563.1H667l-16.2,119.5h0c-14.7,0-24.9-11.9-22.9-26.6l12.6-92.9h-92.9l-16.2,119.5v0
				c-7,51.3,29,92.9,80.3,92.9h0h26.6h0c51.3,0,98.6-41.6,105.5-92.9l0,0L759.9,563.1L759.9,563.1z"/>
		</g>
		<g class="st7">
			<linearGradient id="SVGID_17_" gradientUnits="userSpaceOnUse" x1="781.0194" y1="610.0074" x2="953.8203" y2="782.8083">
				<stop  offset="0" style="stop-color:#00F9FF"/>
				<stop  offset="1" style="stop-color:#00FFC2"/>
			</linearGradient>
			<path class="st23" d="M897,570.1c22.6,0,42.7,8.7,56.5,24.5c14,16,20,37.5,16.9,60.5L955,768.6h-78.8l11.5-85
				c1.2-9.2-1.2-17.8-7-24.4c-5.7-6.5-13.8-10.1-22.9-10.1h-6.1l-0.8,6.1l-15.4,113.4h-78.8L771.8,657c6.5-47.9,50.7-86.9,98.6-86.9
				H897 M897,563.1L897,563.1h-26.6h0c-51.3,0-98.6,41.6-105.5,92.9v0l-16.2,119.5h92.9l16.2-119.5c14.7,0,24.9,11.9,22.9,26.6
				l-12.6,92.9h92.9l16.2-119.5v0C984.3,604.7,948.3,563.1,897,563.1L897,563.1z"/>
		</g>
	</g>
	<text transform="matrix(0.9909 0 -0.1345 0.9909 367.6918 314.4756)" class="st24 st25 st26">JUST</text>
	<g>
		<path class="st27" d="M436.9,215.4c0.2-1.2-0.3-1.7-1.5-1.7h-14.8c-0.5,0-0.9,0.2-1.3,0.5c-0.4,0.3-0.6,0.7-0.7,1.2l-5.7,41.9
			h18.3L436.9,215.4z"/>
		<path class="st27" d="M409.2,284.5c-0.5,3.6-2.1,6.7-4.7,9.4c-2.7,2.7-5.8,4.2-9.4,4.6c-4.4,0.3-7.8-1-10.3-3.9
			c-0.6-0.7-1.3-0.7-2.3,0l-12.7,9.5c-1,0.9-1.1,1.7-0.5,2.6c2.6,3.2,5.9,5.7,9.7,7.6c3.8,1.9,8.2,2.7,13,2.5
			c4.3-0.1,8.5-1,12.5-2.8c4-1.8,7.7-4.1,10.9-7.1c3.2-2.9,5.9-6.4,8-10.3c2.1-3.9,3.5-8.1,4.1-12.5l2.4-17.6h-18.3L409.2,284.5z"/>
		<path class="st27" d="M506.1,278c-0.4,2.9-1.3,5.6-2.8,8.1c-1.5,2.5-3.4,4.7-5.6,6.6c-2.2,1.8-4.7,3.2-7.5,4.2
			c-2.8,1-5.6,1.3-8.6,1c-2.6-0.3-4.9-1-6.9-2.2c-2.1-1.2-3.7-2.7-5.1-4.5c-1.3-1.9-2.3-4-2.9-6.3c-0.6-2.4-0.7-4.8-0.4-7.4l1.5-11
			h-18.3l-1.5,10.7c-0.7,5.4-0.4,10.4,1,15.2c1.4,4.8,3.6,8.9,6.7,12.5c3.1,3.6,6.8,6.4,11.2,8.5c4.4,2.1,9.3,3,14.7,3
			c5.2-0.1,10.2-1.2,15.1-3.2c4.8-2.1,9.2-4.8,13-8.3c3.8-3.5,7-7.5,9.6-12.1c2.6-4.6,4.2-9.5,4.9-14.7l1.6-11.6h-18.3L506.1,278z"
			/>
		<path class="st27" d="M533,215.1c0.1-0.5,0-0.9-0.3-1.2c-0.3-0.3-0.7-0.5-1.2-0.5h-14.7c-0.5,0-0.9,0.2-1.4,0.5
			c-0.4,0.3-0.7,0.7-0.7,1.2l-5.7,42.1h18.3L533,215.1z"/>
		<path class="st27" d="M474.9,215.1c0.1-0.5,0-0.9-0.3-1.2c-0.3-0.3-0.7-0.5-1.2-0.5h-14.8c-0.5,0-0.9,0.2-1.3,0.5
			c-0.4,0.3-0.6,0.7-0.7,1.2l-5.7,42.1h18.3L474.9,215.1z"/>
		<path class="st27" d="M569.7,272.1l13.7,2.9c3.9,0.8,6.8,2.2,8.5,4.4s2.5,4.7,2.1,7.6c-0.5,3.6-2.3,6.6-5.4,8.9
			c-3.1,2.3-7.3,3.5-12.6,3.5c-2.5,0-4.8-0.3-6.9-1c-2.1-0.7-4.1-1.5-5.8-2.6c-1.8-1.1-3.4-2.2-4.8-3.5c-1.5-1.3-2.8-2.6-3.9-3.8
			c-0.3-0.4-0.8-0.6-1.3-0.5c-0.5,0-1,0.3-1.3,0.8l-10.7,11.7c-0.8,0.9-0.9,1.6-0.3,2.3c1.2,1.6,2.8,3.3,4.8,5
			c2,1.7,4.3,3.2,7.1,4.6c2.7,1.4,5.8,2.5,9.3,3.4c3.5,0.9,7.3,1.3,11.4,1.3c5.9,0,11.2-0.9,15.9-2.7s8.9-4.2,12.4-7.1
			c3.5-3,6.3-6.3,8.4-10.1c2.1-3.7,3.4-7.5,3.9-11.4c0.5-3.6,0.3-6.9-0.5-10.2c-0.8-3.2-2.2-6.1-4.2-8.7c-0.1-0.1-0.2-0.2-0.3-0.4
			h-52.9C559.9,269.1,564.4,271,569.7,272.1z"/>
		<path class="st27" d="M590,256l-13.7-2.7c-3.5-0.8-6.1-2.2-7.6-4.2c-1.6-2-2.1-4.4-1.8-7.2c0.2-1.7,0.8-3.4,1.8-4.9
			c1-1.5,2.2-2.9,3.7-4c1.5-1.2,3.3-2.1,5.4-2.8c2.1-0.7,4.3-1.1,6.7-1.1c2,0,3.9,0.2,5.8,0.7c1.9,0.5,3.6,1.1,5.1,1.9
			c1.6,0.8,2.9,1.7,4.1,2.7c1.2,1,2.1,1.9,2.8,2.9c0.3,0.5,0.7,0.7,1.3,0.7s1-0.2,1.4-0.6l11.3-10.4c0.9-0.7,1-1.4,0.5-2.3
			c-2.3-3.5-6.1-6.5-11.2-9.1c-5.2-2.6-11.5-4-19-4c-4.8,0-9.4,0.8-13.9,2.4c-4.5,1.6-8.5,3.8-12.1,6.6c-3.6,2.8-6.6,6.1-9,9.9
			c-2.4,3.8-3.9,8-4.5,12.5c-0.7,5.3-0.2,10,1.6,14.1H595C593.4,256.8,591.8,256.3,590,256z"/>
		<path class="st27" d="M677.7,231.7h32.1c0.6,0,1-0.2,1.3-0.6c0.3-0.4,0.3-0.9,0-1.4l-8.8-14c-1-1.5-2.5-2.3-4.4-2.3h-62.5
			c-0.5,0-0.9,0.2-1.3,0.5c-0.4,0.3-0.6,0.7-0.7,1.2l-2,14.8c-0.1,0.5,0,0.9,0.3,1.2c0.3,0.3,0.7,0.5,1.2,0.5h26.5l-3.5,25.6h18.3
			L677.7,231.7z"/>
		<path class="st27" d="M648.5,312.5c-0.2,1.2,0.3,1.7,1.5,1.7h14.8c1.2,0,1.8-0.6,2-1.7l6.2-46h-18.3L648.5,312.5z"/>
	</g>
	<linearGradient id="SVGID_18_" gradientUnits="userSpaceOnUse" x1="-365.2128" y1="410.7021" x2="-257.9787" y2="410.7021">
		<stop  offset="0" style="stop-color:#00F9FF"/>
		<stop  offset="1" style="stop-color:#00FFC3"/>
	</linearGradient>
	<rect x="-365.2" y="362.4" class="st28" width="107.2" height="96.5"/>
</g>
<g id="Layer_3" class="st0">
	<g class="st7">
		<g>
			<linearGradient id="SVGID_19_" gradientUnits="userSpaceOnUse" x1="441.4105" y1="466.5516" x2="593.0082" y2="466.5516">
				<stop  offset="0" style="stop-color:#00F9FF"/>
				<stop  offset="1" style="stop-color:#00FFC3"/>
			</linearGradient>
			<path class="st29" d="M590.7,455l-3,23.1H445.9l20.6-23.1H590.7 M593,453H465.5l-24.1,27.1h148.1L593,453L593,453z"/>
		</g>
		<g>
			<linearGradient id="SVGID_20_" gradientUnits="userSpaceOnUse" x1="415.791" y1="524.9413" x2="539.1196" y2="524.9413">
				<stop  offset="0" style="stop-color:#00F9FF"/>
				<stop  offset="1" style="stop-color:#00FFC3"/>
			</linearGradient>
			<path class="st30" d="M501.2,484.9l-2.6,19.8c-0.1,0.6,0.1,1.1,0.5,1.6s0.9,0.7,1.5,0.7h36.3l-3,23.1h-36.8c-1,0-1.9,0.7-2,1.7
				l-4.3,33.1h-23.2l4.2-32.6c0.1-0.6-0.1-1.1-0.5-1.6c-0.4-0.4-0.9-0.7-1.5-0.7h-51.8l3.2-24.3l18.6-20.9h28.7l-16.6,18.7
				c-0.5,0.6-0.7,1.4-0.3,2.1c0.3,0.7,1,1.2,1.8,1.2h20c1,0,1.9-0.7,2-1.7l2.6-20.3H501.2 M503.5,482.9h-27.2l-2.9,22.1h-20
				l19.6-22.1h-34.1L419.3,505l-3.5,27.1h54.1l-4.5,34.9h27.2l4.5-34.9h38.5l3.5-27.1h-38.5L503.5,482.9L503.5,482.9z"/>
		</g>
		<g>
			<linearGradient id="SVGID_21_" gradientUnits="userSpaceOnUse" x1="540.0746" y1="535.9749" x2="608.131" y2="535.9749">
				<stop  offset="0" style="stop-color:#00F9FF"/>
				<stop  offset="1" style="stop-color:#00FFC3"/>
			</linearGradient>
			<path class="st31" d="M605.9,507l-4.2,32.6l-3.3,25.4h-25.4h-17.4l-13.3-15.2l5.6-42.8h23.2l-4.4,34c-0.1,0.6,0.1,1.1,0.5,1.6
				l6.8,7.7c0.4,0.4,0.9,0.7,1.5,0.7c0.2,0,0.4,0,0.6-0.1c0.8-0.2,1.3-0.9,1.4-1.7l5.5-42.2H605.9 M608.1,505h-27.2l-5.7,43.9
				l-6.8-7.7l4.7-36.3H546l-5.9,45.5l14.5,16.5h18.3h27.2l3.5-27.1L608.1,505L608.1,505z"/>
		</g>
		<g>
			<linearGradient id="SVGID_22_" gradientUnits="userSpaceOnUse" x1="676.1874" y1="535.9749" x2="608.131" y2="535.9749">
				<stop  offset="0" style="stop-color:#00F9FF"/>
				<stop  offset="1" style="stop-color:#00FFC3"/>
			</linearGradient>
			<path class="st32" d="M660.8,507l13.3,15.2l-5.6,42.8h-23.2l4.4-34c0.1-0.6-0.1-1.1-0.5-1.6l-6.8-7.7c-0.4-0.4-0.9-0.7-1.5-0.7
				c-0.2,0-0.4,0-0.6,0.1c-0.8,0.2-1.3,0.9-1.4,1.7l-5.5,42.2h-23.2l4.2-32.6L618,507h25.4H660.8 M661.7,505h-18.3h-27.2l-3.5,27.1
				l-4.5,34.9h27.2l5.7-43.9l6.8,7.7l-4.7,36.3h27.2l5.9-45.5L661.7,505L661.7,505z"/>
		</g>
		<g class="st0">
			<linearGradient id="SVGID_23_" gradientUnits="userSpaceOnUse" x1="675.189" y1="535.9749" x2="608.027" y2="535.9749">
				<stop  offset="0" style="stop-color:#00F9FF"/>
				<stop  offset="1" style="stop-color:#00FFC3"/>
			</linearGradient>
			<path class="st33" d="M653.7,507l19.4,22.1l-4.7,36h-23.2l3.2-24.9c0.1-0.6-0.1-1.1-0.5-1.6l-6.8-7.8c-0.4-0.4-0.9-0.7-1.5-0.7
				c-0.2,0-0.4,0-0.6,0.1c-0.8,0.2-1.3,0.9-1.4,1.7l-4.3,33.1h-23.2l4.2-32.6l3.3-25.4h25.4H653.7 M654.6,505h-11.3h-27.2l-3.5,27.1
				L608,567h27.2l4.5-34.9l6.8,7.8L643,567h27.2l5-38.6L654.6,505L654.6,505z"/>
		</g>
		<g class="st0">
			<linearGradient id="SVGID_24_" gradientUnits="userSpaceOnUse" x1="608.1296" y1="535.9749" x2="675.039" y2="535.9749">
				<stop  offset="0" style="stop-color:#00F9FF"/>
				<stop  offset="1" style="stop-color:#00FFC3"/>
			</linearGradient>
			<path class="st34" d="M651.2,507c6.6,0,12.6,2.6,16.6,7.2c4.1,4.7,5.9,11,5,17.7l-4.3,33.1h-23.2l3.2-24.9
				c0.3-2.7-0.4-5.2-2.1-7.1c-1.7-1.9-4-2.9-6.7-2.9c-1,0-1.9,0.7-2,1.7l-4.3,33.1h-23.2l4.2-32.6L618,507h25.4H651.2 M651.2,505
				h-7.8h-27.2l-3.5,27.1l-4.5,34.9h27.2l4.5-34.9h0c4.3,0,7.3,3.5,6.8,7.8l-3.5,27.1h27.2l4.5-34.9v0
				C676.8,517.1,666.2,505,651.2,505L651.2,505z"/>
		</g>
	</g>
	<g class="st7">
		<path class="st27" d="M514.1,405.4c0-0.3-0.1-0.5-0.4-0.5h-4.3c-0.1,0-0.3,0-0.4,0.1c-0.1,0.1-0.2,0.2-0.2,0.4l-1.7,12.2h5.3
			L514.1,405.4z"/>
		<path class="st27" d="M506,425.6c-0.1,1-0.6,2-1.4,2.7c-0.8,0.8-1.7,1.2-2.8,1.3c-1.3,0.1-2.3-0.3-3-1.1c-0.2-0.2-0.4-0.2-0.7,0
			l-3.7,2.8c-0.3,0.3-0.3,0.5-0.1,0.8c0.8,0.9,1.7,1.7,2.8,2.2c1.1,0.5,2.4,0.8,3.8,0.7c1.3,0,2.5-0.3,3.7-0.8
			c1.2-0.5,2.2-1.2,3.2-2.1c0.9-0.9,1.7-1.9,2.3-3c0.6-1.2,1-2.4,1.2-3.7l0.7-5.2h-5.3L506,425.6z"/>
		<path class="st27" d="M534.3,423.7c-0.1,0.8-0.4,1.6-0.8,2.4c-0.4,0.7-1,1.4-1.6,1.9c-0.6,0.5-1.4,0.9-2.2,1.2
			c-0.8,0.3-1.6,0.4-2.5,0.3c-0.7-0.1-1.4-0.3-2-0.6c-0.6-0.3-1.1-0.8-1.5-1.3c-0.4-0.5-0.7-1.2-0.8-1.9c-0.2-0.7-0.2-1.4-0.1-2.2
			l0.4-3.2h-5.3l-0.4,3.1c-0.2,1.6-0.1,3.1,0.3,4.4c0.4,1.4,1,2.6,1.9,3.7c0.9,1.1,2,1.9,3.3,2.5c1.3,0.6,2.7,0.9,4.3,0.9
			c1.5,0,3-0.3,4.4-0.9c1.4-0.6,2.7-1.4,3.8-2.4c1.1-1,2.1-2.2,2.8-3.5c0.8-1.3,1.2-2.8,1.4-4.3l0.5-3.4h-5.3L534.3,423.7z"/>
		<path class="st27" d="M542.2,405.3c0-0.1,0-0.3-0.1-0.4c-0.1-0.1-0.2-0.1-0.3-0.1h-4.3c-0.1,0-0.3,0-0.4,0.1
			c-0.1,0.1-0.2,0.2-0.2,0.4l-1.7,12.3h5.3L542.2,405.3z"/>
		<path class="st27" d="M525.2,405.3c0-0.1,0-0.3-0.1-0.4c-0.1-0.1-0.2-0.1-0.3-0.1h-4.3c-0.1,0-0.3,0-0.4,0.1
			c-0.1,0.1-0.2,0.2-0.2,0.4l-1.7,12.3h5.3L525.2,405.3z"/>
		<path class="st27" d="M552.9,422l4,0.8c1.1,0.2,2,0.7,2.5,1.3c0.5,0.6,0.7,1.4,0.6,2.2c-0.1,1.1-0.7,1.9-1.6,2.6
			c-0.9,0.7-2.1,1-3.7,1c-0.7,0-1.4-0.1-2-0.3c-0.6-0.2-1.2-0.4-1.7-0.8c-0.5-0.3-1-0.7-1.4-1c-0.4-0.4-0.8-0.8-1.2-1.1
			c-0.1-0.1-0.2-0.2-0.4-0.1c-0.2,0-0.3,0.1-0.4,0.2l-3.1,3.4c-0.2,0.3-0.3,0.5-0.1,0.7c0.4,0.5,0.8,1,1.4,1.5
			c0.6,0.5,1.3,0.9,2.1,1.3c0.8,0.4,1.7,0.7,2.7,1c1,0.3,2.1,0.4,3.3,0.4c1.7,0,3.3-0.3,4.7-0.8c1.4-0.5,2.6-1.2,3.6-2.1
			c1-0.9,1.9-1.9,2.5-2.9c0.6-1.1,1-2.2,1.1-3.3c0.1-1,0.1-2-0.1-3c-0.2-0.9-0.6-1.8-1.2-2.5c0,0-0.1-0.1-0.1-0.1H549
			C550.1,421.1,551.4,421.7,552.9,422z"/>
		<path class="st27" d="M558.9,417.3l-4-0.8c-1-0.2-1.8-0.6-2.2-1.2c-0.5-0.6-0.6-1.3-0.5-2.1c0.1-0.5,0.2-1,0.5-1.4
			c0.3-0.4,0.6-0.8,1.1-1.2c0.4-0.3,1-0.6,1.6-0.8c0.6-0.2,1.3-0.3,2-0.3c0.6,0,1.2,0.1,1.7,0.2c0.5,0.1,1,0.3,1.5,0.6
			c0.5,0.2,0.9,0.5,1.2,0.8c0.3,0.3,0.6,0.6,0.8,0.8c0.1,0.1,0.2,0.2,0.4,0.2c0.2,0,0.3-0.1,0.4-0.2l3.3-3c0.3-0.2,0.3-0.4,0.1-0.7
			c-0.7-1-1.8-1.9-3.3-2.7c-1.5-0.8-3.4-1.2-5.6-1.2c-1.4,0-2.8,0.2-4.1,0.7c-1.3,0.5-2.5,1.1-3.5,1.9c-1.1,0.8-1.9,1.8-2.6,2.9
			c-0.7,1.1-1.1,2.3-1.3,3.7c-0.2,1.6-0.1,2.9,0.5,4.1h13.5C559.9,417.5,559.4,417.4,558.9,417.3z"/>
		<path class="st27" d="M584.5,410.2h9.4c0.2,0,0.3-0.1,0.4-0.2c0.1-0.1,0.1-0.3,0-0.4l-2.6-4.1c-0.3-0.4-0.7-0.7-1.3-0.7h-18.3
			c-0.1,0-0.3,0-0.4,0.1c-0.1,0.1-0.2,0.2-0.2,0.4l-0.6,4.3c0,0.1,0,0.3,0.1,0.4c0.1,0.1,0.2,0.1,0.3,0.1h7.8l-1,7.5h5.3
			L584.5,410.2z"/>
		<path class="st27" d="M576,433.8c0,0.3,0.1,0.5,0.4,0.5h4.3c0.3,0,0.5-0.2,0.6-0.5l1.8-13.5h-5.3L576,433.8z"/>
	</g>
	<g class="st7">
		<g>
			<text transform="matrix(1 0 0 1 111.6512 665.0421)" class="st25 st35">COMEDY</text>
		</g>
		<g>
			<text transform="matrix(1 0 0 1 107.6512 661.0421)" class="st36 st25 st35">COMEDY</text>
		</g>
	</g>
	<g class="st7">
		<g>
			<text transform="matrix(1 0 0 1 461.9747 665.0425)" class="st25 st35">GAMING</text>
		</g>
		<g>
			<text transform="matrix(1 0 0 1 457.9747 661.0425)" class="st36 st25 st35">GAMING</text>
		</g>
	</g>
	<g class="st7">
		<g>
			<text transform="matrix(1 0 0 1 906.3181 665.0425)" class="st25 st35">fUN</text>
		</g>
		<g>
			<text transform="matrix(1 0 0 1 902.3181 661.0425)" class="st36 st25 st35">fUN</text>
		</g>
	</g>
	<g class="st7">
		<linearGradient id="SVGID_25_" gradientUnits="userSpaceOnUse" x1="-70.0638" y1="692.9006" x2="-33.8085" y2="692.9006">
			<stop  offset="0" style="stop-color:#0F94EF"/>
			<stop  offset="1" style="stop-color:#00EDAF"/>
		</linearGradient>
		<rect x="-70.1" y="683.3" class="st37" width="36.3" height="19.3"/>
		<linearGradient id="SVGID_26_" gradientUnits="userSpaceOnUse" x1="-70.0638" y1="668.9006" x2="-33.8085" y2="668.9006">
			<stop  offset="0" style="stop-color:#0F94EF"/>
			<stop  offset="1" style="stop-color:#00EDAF"/>
		</linearGradient>
		<rect x="-70.1" y="659.3" class="st38" width="36.3" height="19.3"/>
		<linearGradient id="SVGID_27_" gradientUnits="userSpaceOnUse" x1="-70.0638" y1="644.9006" x2="-33.8085" y2="644.9006">
			<stop  offset="0" style="stop-color:#0F94EF"/>
			<stop  offset="1" style="stop-color:#00EDAF"/>
		</linearGradient>
		<rect x="-70.1" y="635.3" class="st39" width="36.3" height="19.3"/>
		<linearGradient id="SVGID_28_" gradientUnits="userSpaceOnUse" x1="-70.0638" y1="620.9006" x2="-33.8085" y2="620.9006">
			<stop  offset="0" style="stop-color:#0F94EF"/>
			<stop  offset="1" style="stop-color:#00EDAF"/>
		</linearGradient>
		<rect x="-70.1" y="611.3" class="st40" width="36.3" height="19.3"/>
	</g>
	<g class="st7">
		<linearGradient id="SVGID_29_" gradientUnits="userSpaceOnUse" x1="-20.5319" y1="548.9006" x2="15.7234" y2="548.9006">
			<stop  offset="0" style="stop-color:#0F94EF"/>
			<stop  offset="1" style="stop-color:#00EDAF"/>
		</linearGradient>
		<rect x="-20.5" y="539.3" class="st41" width="36.3" height="19.3"/>
		<linearGradient id="SVGID_30_" gradientUnits="userSpaceOnUse" x1="-20.5319" y1="524.9006" x2="15.7234" y2="524.9006">
			<stop  offset="0" style="stop-color:#0F94EF"/>
			<stop  offset="1" style="stop-color:#00EDAF"/>
		</linearGradient>
		<rect x="-20.5" y="515.3" class="st42" width="36.3" height="19.3"/>
		<linearGradient id="SVGID_31_" gradientUnits="userSpaceOnUse" x1="-20.5319" y1="692.9006" x2="15.7234" y2="692.9006">
			<stop  offset="0" style="stop-color:#0F94EF"/>
			<stop  offset="1" style="stop-color:#00EDAF"/>
		</linearGradient>
		<rect x="-20.5" y="683.3" class="st43" width="36.3" height="19.3"/>
		<linearGradient id="SVGID_32_" gradientUnits="userSpaceOnUse" x1="-20.5319" y1="668.9006" x2="15.7234" y2="668.9006">
			<stop  offset="0" style="stop-color:#0F94EF"/>
			<stop  offset="1" style="stop-color:#00EDAF"/>
		</linearGradient>
		<rect x="-20.5" y="659.3" class="st44" width="36.3" height="19.3"/>
		<linearGradient id="SVGID_33_" gradientUnits="userSpaceOnUse" x1="-20.5319" y1="644.9006" x2="15.7234" y2="644.9006">
			<stop  offset="0" style="stop-color:#0F94EF"/>
			<stop  offset="1" style="stop-color:#00EDAF"/>
		</linearGradient>
		<rect x="-20.5" y="635.3" class="st45" width="36.3" height="19.3"/>
		<linearGradient id="SVGID_34_" gradientUnits="userSpaceOnUse" x1="-20.5319" y1="620.9006" x2="15.7234" y2="620.9006">
			<stop  offset="0" style="stop-color:#0F94EF"/>
			<stop  offset="1" style="stop-color:#00EDAF"/>
		</linearGradient>
		<rect x="-20.5" y="611.3" class="st46" width="36.3" height="19.3"/>
		<linearGradient id="SVGID_35_" gradientUnits="userSpaceOnUse" x1="-20.5319" y1="596.9006" x2="15.7234" y2="596.9006">
			<stop  offset="0" style="stop-color:#0F94EF"/>
			<stop  offset="1" style="stop-color:#00EDAF"/>
		</linearGradient>
		<rect x="-20.5" y="587.3" class="st47" width="36.3" height="19.3"/>
		<linearGradient id="SVGID_36_" gradientUnits="userSpaceOnUse" x1="-20.5319" y1="572.9006" x2="15.7234" y2="572.9006">
			<stop  offset="0" style="stop-color:#0F94EF"/>
			<stop  offset="1" style="stop-color:#00EDAF"/>
		</linearGradient>
		<rect x="-20.5" y="563.3" class="st48" width="36.3" height="19.3"/>
		<linearGradient id="SVGID_37_" gradientUnits="userSpaceOnUse" x1="-20.5319" y1="668.9006" x2="15.7234" y2="668.9006">
			<stop  offset="0" style="stop-color:#0F94EF"/>
			<stop  offset="1" style="stop-color:#00EDAF"/>
		</linearGradient>
		<rect x="-20.5" y="659.3" class="st49" width="36.3" height="19.3"/>
		<linearGradient id="SVGID_38_" gradientUnits="userSpaceOnUse" x1="-20.5319" y1="644.9006" x2="15.7234" y2="644.9006">
			<stop  offset="0" style="stop-color:#0F94EF"/>
			<stop  offset="1" style="stop-color:#00EDAF"/>
		</linearGradient>
		<rect x="-20.5" y="635.3" class="st50" width="36.3" height="19.3"/>
		<linearGradient id="SVGID_39_" gradientUnits="userSpaceOnUse" x1="-20.5319" y1="620.9006" x2="15.7234" y2="620.9006">
			<stop  offset="0" style="stop-color:#0F94EF"/>
			<stop  offset="1" style="stop-color:#00EDAF"/>
		</linearGradient>
		<rect x="-20.5" y="611.3" class="st51" width="36.3" height="19.3"/>
		<linearGradient id="SVGID_40_" gradientUnits="userSpaceOnUse" x1="-20.5319" y1="596.9006" x2="15.7234" y2="596.9006">
			<stop  offset="0" style="stop-color:#0F94EF"/>
			<stop  offset="1" style="stop-color:#00EDAF"/>
		</linearGradient>
		<rect x="-20.5" y="587.3" class="st52" width="36.3" height="19.3"/>
		<linearGradient id="SVGID_41_" gradientUnits="userSpaceOnUse" x1="-20.5319" y1="572.9006" x2="15.7234" y2="572.9006">
			<stop  offset="0" style="stop-color:#0F94EF"/>
			<stop  offset="1" style="stop-color:#00EDAF"/>
		</linearGradient>
		<rect x="-20.5" y="563.3" class="st53" width="36.3" height="19.3"/>
	</g>
	<g class="st7">
		<linearGradient id="SVGID_42_" gradientUnits="userSpaceOnUse" x1="29.5106" y1="692.9006" x2="65.766" y2="692.9006">
			<stop  offset="0" style="stop-color:#0F94EF"/>
			<stop  offset="1" style="stop-color:#00EDAF"/>
		</linearGradient>
		<rect x="29.5" y="683.3" class="st54" width="36.3" height="19.3"/>
		<linearGradient id="SVGID_43_" gradientUnits="userSpaceOnUse" x1="29.5106" y1="668.9006" x2="65.766" y2="668.9006">
			<stop  offset="0" style="stop-color:#0F94EF"/>
			<stop  offset="1" style="stop-color:#00EDAF"/>
		</linearGradient>
		<rect x="29.5" y="659.3" class="st55" width="36.3" height="19.3"/>
		<linearGradient id="SVGID_44_" gradientUnits="userSpaceOnUse" x1="29.5106" y1="644.9006" x2="65.766" y2="644.9006">
			<stop  offset="0" style="stop-color:#0F94EF"/>
			<stop  offset="1" style="stop-color:#00EDAF"/>
		</linearGradient>
		<rect x="29.5" y="635.3" class="st56" width="36.3" height="19.3"/>
		<linearGradient id="SVGID_45_" gradientUnits="userSpaceOnUse" x1="29.5106" y1="620.9006" x2="65.766" y2="620.9006">
			<stop  offset="0" style="stop-color:#0F94EF"/>
			<stop  offset="1" style="stop-color:#00EDAF"/>
		</linearGradient>
		<rect x="29.5" y="611.3" class="st57" width="36.3" height="19.3"/>
		<linearGradient id="SVGID_46_" gradientUnits="userSpaceOnUse" x1="29.5106" y1="596.9006" x2="65.766" y2="596.9006">
			<stop  offset="0" style="stop-color:#0F94EF"/>
			<stop  offset="1" style="stop-color:#00EDAF"/>
		</linearGradient>
		<rect x="29.5" y="587.3" class="st58" width="36.3" height="19.3"/>
		<linearGradient id="SVGID_47_" gradientUnits="userSpaceOnUse" x1="29.5106" y1="572.9006" x2="65.766" y2="572.9006">
			<stop  offset="0" style="stop-color:#0F94EF"/>
			<stop  offset="1" style="stop-color:#00EDAF"/>
		</linearGradient>
		<rect x="29.5" y="563.3" class="st59" width="36.3" height="19.3"/>
		<linearGradient id="SVGID_48_" gradientUnits="userSpaceOnUse" x1="29.5106" y1="668.9006" x2="65.766" y2="668.9006">
			<stop  offset="0" style="stop-color:#0F94EF"/>
			<stop  offset="1" style="stop-color:#00EDAF"/>
		</linearGradient>
		<rect x="29.5" y="659.3" class="st60" width="36.3" height="19.3"/>
		<linearGradient id="SVGID_49_" gradientUnits="userSpaceOnUse" x1="29.5106" y1="644.9006" x2="65.766" y2="644.9006">
			<stop  offset="0" style="stop-color:#0F94EF"/>
			<stop  offset="1" style="stop-color:#00EDAF"/>
		</linearGradient>
		<rect x="29.5" y="635.3" class="st61" width="36.3" height="19.3"/>
		<linearGradient id="SVGID_50_" gradientUnits="userSpaceOnUse" x1="29.5106" y1="620.9006" x2="65.766" y2="620.9006">
			<stop  offset="0" style="stop-color:#0F94EF"/>
			<stop  offset="1" style="stop-color:#00EDAF"/>
		</linearGradient>
		<rect x="29.5" y="611.3" class="st62" width="36.3" height="19.3"/>
		<linearGradient id="SVGID_51_" gradientUnits="userSpaceOnUse" x1="29.5106" y1="596.9006" x2="65.766" y2="596.9006">
			<stop  offset="0" style="stop-color:#0F94EF"/>
			<stop  offset="1" style="stop-color:#00EDAF"/>
		</linearGradient>
		<rect x="29.5" y="587.3" class="st63" width="36.3" height="19.3"/>
		<linearGradient id="SVGID_52_" gradientUnits="userSpaceOnUse" x1="29.5106" y1="572.9006" x2="65.766" y2="572.9006">
			<stop  offset="0" style="stop-color:#0F94EF"/>
			<stop  offset="1" style="stop-color:#00EDAF"/>
		</linearGradient>
		<rect x="29.5" y="563.3" class="st64" width="36.3" height="19.3"/>
	</g>
	
		<linearGradient id="SVGID_53_" gradientUnits="userSpaceOnUse" x1="979.7339" y1="443.7243" x2="1177.3615" y2="443.7243" gradientTransform="matrix(0.9821 0.1882 -0.1882 0.9821 102.8688 -195.814)">
		<stop  offset="0" style="stop-color:#FFFFFF"/>
		<stop  offset="1" style="stop-color:#00EDAF"/>
	</linearGradient>
	
		<ellipse transform="matrix(0.1882 -0.9821 0.9821 0.1882 440.5208 1418.9456)" class="st65" cx="1078.6" cy="443" rx="38.8" ry="98.3"/>
	
		<linearGradient id="SVGID_54_" gradientUnits="userSpaceOnUse" x1="979.7339" y1="429.0273" x2="1177.3615" y2="429.0273" gradientTransform="matrix(0.9821 0.1882 -0.1882 0.9821 102.8688 -195.814)">
		<stop  offset="0" style="stop-color:#FFFFFF"/>
		<stop  offset="1" style="stop-color:#00EDAF"/>
	</linearGradient>
	
		<ellipse transform="matrix(0.1882 -0.9821 0.9821 0.1882 456.9427 1409.9451)" class="st66" cx="1081.4" cy="428.6" rx="38.8" ry="98.3"/>
	
		<linearGradient id="SVGID_55_" gradientUnits="userSpaceOnUse" x1="979.7339" y1="414.3302" x2="1177.3615" y2="414.3302" gradientTransform="matrix(0.9821 0.1882 -0.1882 0.9821 102.8688 -195.814)">
		<stop  offset="0" style="stop-color:#FFFFFF"/>
		<stop  offset="1" style="stop-color:#00EDAF"/>
	</linearGradient>
	
		<ellipse transform="matrix(0.1882 -0.9821 0.9821 0.1882 473.3647 1400.9446)" class="st67" cx="1084.2" cy="414.1" rx="38.8" ry="98.3"/>
</g>
</svg>
