<?xml version="1.0" encoding="utf-8"?>
<!-- Generator: Adobe Illustrator 23.0.1, SVG Export Plug-In . SVG Version: 6.00 Build 0)  -->
<svg version="1.1" xmlns="http://www.w3.org/2000/svg" xmlns:xlink="http://www.w3.org/1999/xlink" x="0px" y="0px"
	 viewBox="0 0 14400 14400" style="enable-background:new 0 0 14400 14400;" xml:space="preserve">
<style type="text/css">
	.st0{display:none;}
	.st1{display:inline;fill:url(#SVGID_1_);}
	.st2{opacity:0;fill:url(#SVGID_2_);}
	.st3{fill:url(#SVGID_3_);}
	.st4{fill:none;stroke:#00FFC3;stroke-miterlimit:10;}
	.st5{display:none;fill:none;stroke:#000000;stroke-miterlimit:10;}
	.st6{display:inline;fill:none;stroke:#000000;stroke-miterlimit:10;}
	.st7{display:inline;}
	.st8{fill:#FFB600;}
	.st9{display:inline;fill:#FFB600;}
	.st10{fill:url(#SVGID_4_);}
	.st11{fill:url(#SVGID_5_);}
	.st12{fill:url(#SVGID_6_);}
	.st13{fill:url(#SVGID_7_);}
	.st14{fill:url(#SVGID_8_);}
	.st15{fill:url(#SVGID_9_);}
	.st16{fill:url(#SVGID_10_);}
	.st17{display:inline;fill:url(#SVGID_11_);}
	.st18{display:inline;fill:url(#SVGID_12_);}
	.st19{fill:url(#SVGID_13_);}
	.st20{fill:url(#SVGID_14_);}
	.st21{fill:url(#SVGID_15_);}
	.st22{fill:url(#SVGID_16_);}
	.st23{fill:url(#SVGID_17_);}
	.st24{display:none;fill:#00F9FF;}
	.st25{font-family:'VALORANT-Regular';}
	.st26{font-size:145.32px;}
	.st27{fill:#00F9FF;}
	.st28{display:none;fill:url(#SVGID_18_);}
	.st29{fill:url(#SVGID_19_);}
	.st30{fill:url(#SVGID_20_);}
	.st31{fill:url(#SVGID_21_);}
	.st32{fill:url(#SVGID_22_);}
	.st33{display:inline;fill:url(#SVGID_23_);}
	.st34{display:inline;fill:url(#SVGID_24_);}
	.st35{font-size:36px;}
	.st36{fill:#FFFFFF;}
	.st37{fill:url(#SVGID_25_);}
	.st38{fill:url(#SVGID_26_);}
	.st39{fill:url(#SVGID_27_);}
	.st40{fill:url(#SVGID_28_);}
	.st41{fill:url(#SVGID_29_);}
	.st42{fill:url(#SVGID_30_);}
	.st43{fill:url(#SVGID_31_);}
	.st44{fill:url(#SVGID_32_);}
	.st45{fill:url(#SVGID_33_);}
	.st46{fill:url(#SVGID_34_);}
	.st47{fill:url(#SVGID_35_);}
	.st48{fill:url(#SVGID_36_);}
	.st49{fill:url(#SVGID_37_);}
	.st50{fill:url(#SVGID_38_);}
	.st51{fill:url(#SVGID_39_);}
	.st52{fill:url(#SVGID_40_);}
	.st53{fill:url(#SVGID_41_);}
	.st54{fill:url(#SVGID_42_);}
	.st55{fill:url(#SVGID_43_);}
	.st56{fill:url(#SVGID_44_);}
	.st57{fill:url(#SVGID_45_);}
	.st58{fill:url(#SVGID_46_);}
	.st59{fill:url(#SVGID_47_);}
	.st60{fill:url(#SVGID_48_);}
	.st61{fill:url(#SVGID_49_);}
	.st62{fill:url(#SVGID_50_);}
	.st63{fill:url(#SVGID_51_);}
	.st64{fill:url(#SVGID_52_);}
	.st65{display:inline;fill:none;stroke:url(#SVGID_53_);stroke-miterlimit:10;}
	.st66{display:inline;fill:none;stroke:url(#SVGID_54_);stroke-miterlimit:10;}
	.st67{display:inline;fill:none;stroke:url(#SVGID_55_);stroke-miterlimit:10;}
</style>
<g id="Layer_1" class="st0">
	<linearGradient id="SVGID_1_" gradientUnits="userSpaceOnUse" x1="6660" y1="6660" x2="7740" y2="7740">
		<stop  offset="0" style="stop-color:#001B33"/>
		<stop  offset="1" style="stop-color:#003333"/>
	</linearGradient>
	<rect x="6660" y="6660" class="st1" width="1080" height="1080"/>
	<linearGradient id="SVGID_2_" gradientUnits="userSpaceOnUse" x1="6660" y1="6660" x2="7740" y2="7740">
		<stop  offset="0" style="stop-color:#001B33"/>
		<stop  offset="1" style="stop-color:#003333"/>
	</linearGradient>
	<rect x="6660" y="6660" class="st2" width="1080" height="1080"/>
	<linearGradient id="SVGID_3_" gradientUnits="userSpaceOnUse" x1="6400" y1="6400" x2="8000" y2="8000">
		<stop  offset="0" style="stop-color:#001B33"/>
		<stop  offset="1" style="stop-color:#003333"/>
	</linearGradient>
	<rect x="6176" y="6624" class="st3" width="2048" height="1152"/>
	<rect x="6582.5" y="7031" class="st4" width="1235" height="338"/>
</g>
<g id="Layer_2">
	<rect x="7278.8" y="6978.5" class="st5" width="92.9" height="456.5"/>
	
		<rect x="7226.7" y="7089.9" transform="matrix(-1.836970e-16 1 -1 -1.836970e-16 14542.2764 -4.0851)" class="st5" width="92.9" height="358.5"/>
	<polygon class="st5" points="7168,7278.8 7093.9,7222.7 7278.8,6978.5 7380,6998.3 	"/>
	<polygon class="st5" points="7278.8,6978.5 7093.9,7222.6 7093.9,7315.6 7278.8,7315.6 7278.8,7435.1 7371.7,7435.1 7371.7,7315.6 
		7452.4,7315.6 7452.4,7222.6 7371.7,7222.6 7371.7,6978.5 	"/>
	<g class="st0">
		<polygon class="st6" points="6812.2,7137.6 6882.6,7044.6 7318.4,7044.6 7318.4,7137.6 		"/>
		<polygon class="st6" points="7025.5,7222.6 7025.5,7147.1 6932.6,7147.1 6932.6,7222.6 6864.2,7222.6 6921.4,7147.1 6805,7147.1 
			6747.7,7222.6 6747.7,7315.6 6932.6,7315.6 6932.6,7435.1 7025.5,7435.1 7025.5,7315.6 7157.3,7315.6 7157.3,7222.6 		"/>
		<path class="st6" d="M7300.2,7222.6v119.5l0,0c-14.7,0-26.6-11.9-26.6-26.6v-92.9h-92.9v119.5l0,0c0,51.3,41.6,92.9,92.9,92.9l0,0
			h26.6l0,0c51.3,0,92.9-41.6,92.9-92.9l0,0v-119.5H7300.2z"/>
		<path class="st6" d="M7513.7,7435.1v-119.5l0,0c14.7,0,26.6,11.9,26.6,26.6v92.9h92.9v-119.5v0c0-51.3-41.6-92.9-92.9-92.9l0,0
			h-26.6l0,0c-51.3,0-92.9,41.6-92.9,92.9v0v119.5H7513.7z"/>
	</g>
	<g class="st0">
		<g class="st7">
			<path class="st8" d="M7320.4,7051.6v78.9h-485.1l59.8-78.9H7320.4 M7327.4,7044.6h-435.8l-70.4,92.9h506.2V7044.6L7327.4,7044.6z
				"/>
		</g>
		<g class="st7">
			<path class="st8" d="M7027.6,7154.1v68.6c0,3.9,3.1,7,7,7h124.7v78.9h-124.7c-3.9,0-7,3.1-7,7v112.5h-78.9v-112.5
				c0-3.9-3.1-7-7-7h-177.9V7225l53.7-70.9h98.9l-48.7,64.4c-1.6,2.1-1.9,5-0.7,7.3c1.2,2.4,3.6,3.9,6.3,3.9h68.3c3.9,0,7-3.1,7-7
				v-68.6H7027.6 M7034.6,7147.1h-92.9v75.6h-68.3l57.1-75.6H6814l-57.2,75.6v92.9h184.9v119.5h92.9v-119.5h131.7v-92.9h-131.7
				V7147.1L7034.6,7147.1z"/>
		</g>
		<g class="st7">
			<path class="st8" d="M7395.2,7229.6v112.5v85.9h-85.9h-26.6c-47.4,0-85.9-38.6-85.9-85.9v-112.5h78.9v85.9
				c0,18.5,15.1,33.6,33.6,33.6c3.9,0,7-3.1,7-7v-112.5H7395.2 M7402.2,7222.6h-92.9v119.5c-14.7,0-26.6-11.9-26.6-26.6v-92.9h-92.9
				v119.5l0,0c0,51.3,41.6,92.9,92.9,92.9l0,0h26.6h92.9v-92.9V7222.6L7402.2,7222.6z"/>
		</g>
		<g class="st7">
			<path class="st8" d="M7549.3,7229.6c47.4,0,85.9,38.6,85.9,85.9v112.5h-78.9v-85.9c0-18.5-15.1-33.6-33.6-33.6c-3.9,0-7,3.1-7,7
				v112.5h-78.9v-112.5v-85.9h85.9H7549.3 M7549.3,7222.6L7549.3,7222.6h-26.6h-92.9v92.9v119.5h92.9v-119.5
				c14.7,0,26.6,11.9,26.6,26.6v92.9h92.9v-119.5v0C7642.2,7264.2,7600.6,7222.6,7549.3,7222.6L7549.3,7222.6z"/>
		</g>
	</g>
	<g>
		<g class="st0">
			<path class="st9" d="M7071.1,6975.4c-11,0-19.4-3.1-25.4-9.2c-6-6.1-8.9-14.7-8.9-25.7h14.6c0,7,1.7,12.5,5.2,16.4
				c3.5,3.9,8.4,5.8,14.8,5.8c6.2,0,11-1.9,14.3-5.8c3.4-3.9,5-9.3,5-16.4v-66.4h14.6v66.4c0,11.1-3,19.6-9.1,25.7
				C7090.3,6972.3,7081.9,6975.4,7071.1,6975.4z M7065.2,6887.5v-13.4h32.8v13.4H7065.2z"/>
			<path class="st9" d="M7157,6975.4c-21.4,0-32.1-11.2-32.1-33.5v-67.8h14.6v67.8c0,6.7,1.4,11.7,4.3,15c2.9,3.4,7.3,5.1,13.4,5.1
				c11.8,0,17.7-6.7,17.7-20.1v-67.8h14.6v67.8c0,11.2-2.8,19.5-8.3,25.1C7175.8,6972.6,7167.7,6975.4,7157,6975.4z"/>
			<path class="st9" d="M7238.2,6975.4c-5.7,0-11-0.5-15.9-1.4c-4.9-0.9-9.5-2.3-13.7-4.1l1.8-14.2c5.2,2.2,10.1,3.9,14.9,5
				c4.8,1.1,9.5,1.7,14,1.7c6.6,0,11.4-1.1,14.6-3.4c3.2-2.3,4.8-5.8,4.8-10.5c0-6-3-10.3-9.1-13.1l-17.3-7.9
				c-6.8-3.1-12-6.8-15.6-11.2c-3.6-4.4-5.4-9.8-5.4-16.2c0-8.7,2.6-15.5,7.9-20.3c5.2-4.8,12.7-7.2,22.3-7.2c6.7,0,12.6,1,17.8,3
				c5.2,2,10.1,5.2,14.9,9.6l-9.8,10c-4.1-3.4-8-5.8-11.6-7.3c-3.6-1.5-7.3-2.3-11.2-2.3c-4.8,0-8.6,1.2-11.2,3.5
				c-2.6,2.3-4,5.8-4,10.3c0,3.2,0.9,5.9,2.6,7.9c1.7,2,4.3,3.9,7.7,5.4l14.6,6.9c7.4,3.5,13,7.4,16.9,11.7c3.8,4.4,5.8,10,5.8,16.8
				c0,9-2.9,15.8-8.8,20.4C7259.1,6973.1,7250.2,6975.4,7238.2,6975.4z"/>
			<path class="st9" d="M7289.5,6887.5v-13.4h73.1v13.4H7289.5z M7318.8,6973.9v-99.8h14.6v99.8H7318.8z"/>
		</g>
	</g>
	<g class="st0">
		<g class="st7">
			<linearGradient id="SVGID_4_" gradientUnits="userSpaceOnUse" x1="6847.9878" y1="7091.7109" x2="7366.2236" y2="7091.7109">
				<stop  offset="0" style="stop-color:#00F9FF"/>
				<stop  offset="1" style="stop-color:#00FFC3"/>
			</linearGradient>
			<path class="st10" d="M7358.3,7052.3l-10.2,78.8h-484.4l70-78.8H7358.3 M7366.2,7045.3h-435.8l-82.4,92.8h506.2L7366.2,7045.3
				L7366.2,7045.3z"/>
		</g>
		<g class="st7">
			<linearGradient id="SVGID_5_" gradientUnits="userSpaceOnUse" x1="6760.4077" y1="7291.3154" x2="7182.0059" y2="7291.3154">
				<stop  offset="0" style="stop-color:#00F9FF"/>
				<stop  offset="1" style="stop-color:#00FFC3"/>
			</linearGradient>
			<path class="st11" d="M7052.1,7154.6l-8.8,67.5c-0.3,2,0.4,4,1.7,5.5s3.2,2.4,5.3,2.4H7174l-10.2,78.8h-125.6
				c-3.5,0-6.5,2.6-6.9,6.1l-14.7,113.2h-78.8l14.5-111.4c0.3-2-0.4-4-1.7-5.5s-3.2-2.4-5.3-2.4h-176.9l10.8-82.7l63.5-71.5h97.7
				l-56.6,63.8c-1.8,2.1-2.3,5-1.1,7.5c1.1,2.5,3.6,4.1,6.4,4.1h68.3c3.5,0,6.5-2.6,6.9-6.1l9-69.3H7052.1 M7060.1,7147.6h-92.9
				l-9.8,75.4H6889l66.9-75.4h-116.4l-67,75.4l-12.1,92.8h184.9l-15.5,119.3h92.9l15.5-119.3h131.7l12.1-92.8h-131.7L7060.1,7147.6
				L7060.1,7147.6z"/>
		</g>
		<g class="st7">
			<linearGradient id="SVGID_6_" gradientUnits="userSpaceOnUse" x1="7189.1914" y1="7329.0342" x2="7417.9204" y2="7329.0342">
				<stop  offset="0" style="stop-color:#00F9FF"/>
				<stop  offset="1" style="stop-color:#00FFC3"/>
			</linearGradient>
			<path class="st12" d="M7410,7230l-14.5,111.4l-11.3,86.7h-86.8h-26.6c-22.7,0-42.8-8.7-56.7-24.6c-14.1-16-20.2-37.4-17.2-60.3
				l14.7-113.2h78.8l-11,84.9c-1.2,9.1,1.3,17.8,7.1,24.3c5.7,6.5,13.9,10.1,23,10.1c3.5,0,6.5-2.6,6.9-6.1l14.7-113.2H7410
				 M7417.9,7223H7325l-15.5,119.3c-14.7,0-25-11.9-23.1-26.5l12.1-92.8h-92.9l-15.5,119.3v0c-6.7,51.2,29.5,92.8,80.9,92.8h0h26.6
				h92.9l12.1-92.8L7417.9,7223L7417.9,7223z"/>
		</g>
		<g class="st7">
			<linearGradient id="SVGID_7_" gradientUnits="userSpaceOnUse" x1="7417.9155" y1="7329.0342" x2="7646.645" y2="7329.0342">
				<stop  offset="0" style="stop-color:#00F9FF"/>
				<stop  offset="1" style="stop-color:#00FFC3"/>
			</linearGradient>
			<path class="st13" d="M7565,7230c22.7,0,42.8,8.7,56.7,24.6c14.1,16,20.2,37.4,17.2,60.3l-14.7,113.2h-78.8l11-84.9
				c1.2-9.1-1.3-17.8-7.1-24.3c-5.7-6.5-13.9-10.1-23-10.1c-3.5,0-6.5,2.6-6.9,6.1l-14.7,113.2h-78.8l14.5-111.4l11.3-86.7h86.8
				H7565 M7565,7223L7565,7223h-26.6h-92.9l-12.1,92.8l-15.5,119.3h92.9l15.5-119.3l0,0c14.7,0,25,11.9,23.1,26.5l-12.1,92.8h92.9
				l15.5-119.3v0C7652.5,7264.5,7616.3,7223,7565,7223L7565,7223z"/>
		</g>
	</g>
	<g>
		<g>
			<linearGradient id="SVGID_8_" gradientUnits="userSpaceOnUse" x1="6847.9878" y1="7091.7109" x2="7366.2236" y2="7091.7109">
				<stop  offset="0" style="stop-color:#00F9FF"/>
				<stop  offset="1" style="stop-color:#00FFC3"/>
			</linearGradient>
			<path class="st14" d="M7357.1,7053.3l-10,76.8h-481.3l68.2-76.8H7357.1 M7366.2,7045.3h-435.8l-82.4,92.8h506.2L7366.2,7045.3
				L7366.2,7045.3z"/>
		</g>
		<g>
			<linearGradient id="SVGID_9_" gradientUnits="userSpaceOnUse" x1="7185.2705" y1="7329.0342" x2="7417.9204" y2="7329.0342">
				<stop  offset="0" style="stop-color:#00F9FF"/>
				<stop  offset="1" style="stop-color:#00FFC3"/>
			</linearGradient>
			<path class="st15" d="M7408.8,7231l-14.3,110.2l-11.2,85.8h-85.9h-58.8l-44.9-51.1l18.9-144.9h76.8l-14.9,114.9l-0.5,3.6l2.4,2.7
				l23.1,26.3l11.7,13.2l2.3-17.5L7332,7231H7408.8 M7417.9,7223H7325l-19.5,150.2l-23.1-26.3l16.1-123.9h-92.9l-20.2,155.5
				l49.7,56.5h62.5h92.9l12.1-92.8L7417.9,7223L7417.9,7223z"/>
		</g>
		<g>
			<linearGradient id="SVGID_10_" gradientUnits="userSpaceOnUse" x1="7417.9204" y1="7329.0342" x2="7650.5703" y2="7329.0342">
				<stop  offset="0" style="stop-color:#00F9FF"/>
				<stop  offset="1" style="stop-color:#00FFC3"/>
			</linearGradient>
			<path class="st16" d="M7597.3,7231l44.9,51.1l-18.9,144.9h-76.8l14.9-114.9l0.5-3.6l-2.4-2.7l-23.1-26.3l-11.7-13.2l-2.3,17.5
				l-18.6,143.2H7427l14.3-110.2l11.2-85.8h85.9H7597.3 M7600.9,7223h-62.5h-92.9l-12.1,92.8l-15.5,119.3h92.9l19.5-150.2l23.1,26.3
				l-16.1,123.9h92.9l20.2-155.5L7600.9,7223L7600.9,7223z"/>
		</g>
		<g class="st0">
			<linearGradient id="SVGID_11_" gradientUnits="userSpaceOnUse" x1="7417.5649" y1="7329.0342" x2="7647.1577" y2="7329.0342">
				<stop  offset="0" style="stop-color:#00F9FF"/>
				<stop  offset="1" style="stop-color:#00FFC3"/>
			</linearGradient>
			<path class="st17" d="M7573.2,7231l65.5,74.6l-15.8,121.4h-76.8l10.9-83.7l0.5-3.6l-2.4-2.7l-23.1-26.5l-11.7-13.4l-2.3,17.6
				l-14.6,112.3h-76.8l14.3-110.2l11.2-85.8h85.9H7573.2 M7576.8,7223h-38.8h-92.9l-12.1,92.8l-15.5,119.3h92.9l15.5-119.3l0,0
				l23.1,26.5l-12.1,92.8h92.9l17.2-132L7576.8,7223L7576.8,7223z"/>
		</g>
		<g class="st0">
			<linearGradient id="SVGID_12_" gradientUnits="userSpaceOnUse" x1="7417.9155" y1="7329.0342" x2="7646.645" y2="7329.0342">
				<stop  offset="0" style="stop-color:#00F9FF"/>
				<stop  offset="1" style="stop-color:#00FFC3"/>
			</linearGradient>
			<path class="st18" d="M7565,7231c22.4,0,42.3,8.6,56,24.2c13.9,15.8,19.9,36.9,17,59.5l-14.6,112.3h-76.8l10.9-83.7
				c1.2-9.4-1.4-18.3-7.3-25.1c-5.9-6.7-14.3-10.4-23.7-10.4h-7l-0.9,7l-14.6,112.3H7427l14.3-110.2l11.2-85.8h85.9H7565 M7565,7223
				L7565,7223h-26.6h-92.9l-12.1,92.8l-15.5,119.3h92.9l15.5-119.3l0,0c14.7,0,25,11.9,23.1,26.5l-12.1,92.8h92.9l15.5-119.3v0
				C7652.5,7264.5,7616.3,7223,7565,7223L7565,7223z"/>
		</g>
		<g>
			<linearGradient id="SVGID_13_" gradientUnits="userSpaceOnUse" x1="6760.4077" y1="7305.0957" x2="7182.0059" y2="7305.0957">
				<stop  offset="0" style="stop-color:#00F9FF"/>
				<stop  offset="1" style="stop-color:#00FFC3"/>
			</linearGradient>
			<path class="st19" d="M7047.4,7183.1l-5.1,38.8l-1.2,9h9.1h122.6l-10,76.8h-124.7h-7l-0.9,7l-14.6,112.3h-76.8l14.3-110.2l1.2-9
				h-9.1h-175.7l10.6-81.3l38.5-43.4h95.1l-30.7,34.6l-11.8,13.3h17.8h68.3h7l0.9-7l5.3-40.9H7047.4 M7056.5,7175.1h-92.9l-6.2,47.9
				H6889l42.5-47.9H6815l-42.6,47.9l-12.1,92.8h184.9l-15.5,119.3h92.9l15.5-119.3h131.7l12.1-92.8h-131.7L7056.5,7175.1
				L7056.5,7175.1z"/>
		</g>
	</g>
	<g class="st0">
		<g class="st7">
			<linearGradient id="SVGID_14_" gradientUnits="userSpaceOnUse" x1="6997.9312" y1="6979.6519" x2="7255.9863" y2="7237.707">
				<stop  offset="0" style="stop-color:#00F9FF"/>
				<stop  offset="1" style="stop-color:#00FFC2"/>
			</linearGradient>
			<path class="st20" d="M7360.7,7051.6l-10.7,78.9h-484.4l70.5-78.9H7360.7 M7368.8,7044.6H6933l-83,92.9h506.2L7368.8,7044.6
				L7368.8,7044.6z"/>
		</g>
		<g class="st7">
			<linearGradient id="SVGID_15_" gradientUnits="userSpaceOnUse" x1="6845.9116" y1="7142.5898" x2="7094.8813" y2="7391.5596">
				<stop  offset="0" style="stop-color:#00F9FF"/>
				<stop  offset="1" style="stop-color:#00FFC2"/>
			</linearGradient>
			<path class="st21" d="M7054,7154.1l-9.2,67.6l-1.1,7.9h8h123.7l-10.7,78.9h-125.6h-6.1l-0.8,6.1l-15.4,113.4H6938l15.1-111.5
				l1.1-7.9h-8h-176.8l11.2-82.9l64-71.6h97.7l-57,63.9l-10.4,11.7h15.6h68.3h6.1l0.8-6.1l9.4-69.5H7054 M7062,7147.1h-92.9
				l-10.3,75.6h-68.3l67.4-75.6h-116.4l-67.5,75.6l-12.6,92.9h184.9l-16.2,119.5h92.9l16.2-119.5h131.7l12.6-92.9h-131.7
				L7062,7147.1L7062,7147.1z"/>
		</g>
		<g class="st7">
			<linearGradient id="SVGID_16_" gradientUnits="userSpaceOnUse" x1="7214.2344" y1="7215.3721" x2="7387.0352" y2="7388.1733">
				<stop  offset="0" style="stop-color:#00F9FF"/>
				<stop  offset="1" style="stop-color:#00FFC2"/>
			</linearGradient>
			<path class="st22" d="M7411.4,7229.6l-15.1,111.5c-6.5,47.9-50.7,86.9-98.6,86.9h-26.6c-22.6,0-42.7-8.7-56.5-24.5
				c-14-16-20-37.5-16.9-60.5l15.4-113.4h78.8l-11.5,85c-1.2,9.2,1.2,17.8,7,24.4c5.7,6.5,13.8,10.1,22.9,10.1h6.1l0.8-6.1
				l15.4-113.4H7411.4 M7419.4,7222.6h-92.9l-16.2,119.5l0,0c-14.7,0-24.9-11.9-22.9-26.6l12.6-92.9H7207l-16.2,119.5v0
				c-7,51.3,29,92.9,80.3,92.9l0,0h26.6l0,0c51.3,0,98.6-41.6,105.5-92.9l0,0L7419.4,7222.6L7419.4,7222.6z"/>
		</g>
		<g class="st7">
			<linearGradient id="SVGID_17_" gradientUnits="userSpaceOnUse" x1="7440.5195" y1="7269.5073" x2="7613.3203" y2="7442.3081">
				<stop  offset="0" style="stop-color:#00F9FF"/>
				<stop  offset="1" style="stop-color:#00FFC2"/>
			</linearGradient>
			<path class="st23" d="M7556.5,7229.6c22.6,0,42.7,8.7,56.5,24.5c14,16,20,37.5,16.9,60.5l-15.4,113.4h-78.8l11.5-85
				c1.2-9.2-1.2-17.8-7-24.4c-5.7-6.5-13.8-10.1-22.9-10.1h-6.1l-0.8,6.1l-15.4,113.4h-78.8l15.1-111.5
				c6.5-47.9,50.7-86.9,98.6-86.9H7556.5 M7556.5,7222.6L7556.5,7222.6h-26.6l0,0c-51.3,0-98.6,41.6-105.5,92.9l0,0l-16.2,119.5
				h92.9l16.2-119.5c14.7,0,24.9,11.9,22.9,26.6l-12.6,92.9h92.9l16.2-119.5l0,0C7643.8,7264.2,7607.8,7222.6,7556.5,7222.6
				L7556.5,7222.6z"/>
		</g>
	</g>
	<text transform="matrix(0.9909 0 -0.1345 0.9909 7027.1919 6973.9756)" class="st24 st25 st26">JUST</text>
	<g>
		<path class="st27" d="M7096.4,6874.9c0.2-1.2-0.3-1.7-1.5-1.7H7080c-0.5,0-0.9,0.2-1.3,0.5c-0.4,0.3-0.6,0.7-0.7,1.2l-5.7,41.9
			h18.3L7096.4,6874.9z"/>
		<path class="st27" d="M7068.7,6944c-0.5,3.6-2.1,6.7-4.7,9.4c-2.7,2.7-5.8,4.2-9.4,4.6c-4.4,0.3-7.8-1-10.3-3.9
			c-0.6-0.7-1.3-0.7-2.3,0l-12.7,9.5c-1,0.9-1.1,1.7-0.5,2.6c2.6,3.2,5.9,5.7,9.7,7.6c3.8,1.9,8.2,2.7,13,2.5
			c4.3-0.1,8.5-1,12.5-2.8c4-1.8,7.7-4.1,10.9-7.1c3.2-2.9,5.9-6.4,8-10.3c2.1-3.9,3.5-8.1,4.1-12.5l2.4-17.6h-18.3L7068.7,6944z"/>
		<path class="st27" d="M7165.6,6937.5c-0.4,2.9-1.3,5.6-2.8,8.1c-1.5,2.5-3.4,4.7-5.6,6.6c-2.2,1.8-4.7,3.2-7.5,4.2
			c-2.8,1-5.6,1.3-8.6,1c-2.6-0.3-4.9-1-6.9-2.2c-2.1-1.2-3.7-2.7-5.1-4.5c-1.3-1.9-2.3-4-2.9-6.3c-0.6-2.4-0.7-4.8-0.4-7.4l1.5-11
			h-18.3l-1.5,10.7c-0.7,5.4-0.4,10.4,1,15.2c1.4,4.8,3.6,8.9,6.7,12.5c3.1,3.6,6.8,6.4,11.2,8.5c4.4,2.1,9.3,3,14.7,3
			c5.2-0.1,10.2-1.2,15.1-3.2c4.8-2.1,9.2-4.8,13-8.3c3.8-3.5,7-7.5,9.6-12.1c2.6-4.6,4.2-9.5,4.9-14.7l1.6-11.6h-18.3
			L7165.6,6937.5z"/>
		<path class="st27" d="M7192.5,6874.6c0.1-0.5,0-0.9-0.3-1.2c-0.3-0.3-0.7-0.5-1.2-0.5h-14.7c-0.5,0-0.9,0.2-1.4,0.5
			c-0.4,0.3-0.7,0.7-0.7,1.2l-5.7,42.1h18.3L7192.5,6874.6z"/>
		<path class="st27" d="M7134.4,6874.6c0.1-0.5,0-0.9-0.3-1.2c-0.3-0.3-0.7-0.5-1.2-0.5h-14.8c-0.5,0-0.9,0.2-1.3,0.5
			c-0.4,0.3-0.6,0.7-0.7,1.2l-5.7,42.1h18.3L7134.4,6874.6z"/>
		<path class="st27" d="M7229.2,6931.6l13.7,2.9c3.9,0.8,6.8,2.2,8.5,4.4s2.5,4.7,2.1,7.6c-0.5,3.6-2.3,6.6-5.4,8.9
			c-3.1,2.3-7.3,3.5-12.6,3.5c-2.5,0-4.8-0.3-6.9-1c-2.1-0.7-4.1-1.5-5.8-2.6c-1.8-1.1-3.4-2.2-4.8-3.5c-1.5-1.3-2.8-2.6-3.9-3.8
			c-0.3-0.4-0.8-0.6-1.3-0.5c-0.5,0-1,0.3-1.3,0.8l-10.7,11.7c-0.8,0.9-0.9,1.6-0.3,2.3c1.2,1.6,2.8,3.3,4.8,5
			c2,1.7,4.3,3.2,7.1,4.6c2.7,1.4,5.8,2.5,9.3,3.4c3.5,0.9,7.3,1.3,11.4,1.3c5.9,0,11.2-0.9,15.9-2.7s8.9-4.2,12.4-7.1
			c3.5-3,6.3-6.3,8.4-10.1c2.1-3.7,3.4-7.5,3.9-11.4c0.5-3.6,0.3-6.9-0.5-10.2c-0.8-3.2-2.2-6.1-4.2-8.7c-0.1-0.1-0.2-0.2-0.3-0.4
			h-52.9C7219.4,6928.6,7223.9,6930.5,7229.2,6931.6z"/>
		<path class="st27" d="M7249.5,6915.5l-13.7-2.7c-3.5-0.8-6.1-2.2-7.6-4.2c-1.6-2-2.1-4.4-1.8-7.2c0.2-1.7,0.8-3.4,1.8-4.9
			c1-1.5,2.2-2.9,3.7-4c1.5-1.2,3.3-2.1,5.4-2.8c2.1-0.7,4.3-1.1,6.7-1.1c2,0,3.9,0.2,5.8,0.7c1.9,0.5,3.6,1.1,5.1,1.9
			c1.6,0.8,2.9,1.7,4.1,2.7c1.2,1,2.1,1.9,2.8,2.9c0.3,0.5,0.7,0.7,1.3,0.7s1-0.2,1.4-0.6l11.3-10.4c0.9-0.7,1-1.4,0.5-2.3
			c-2.3-3.5-6.1-6.5-11.2-9.1c-5.2-2.6-11.5-4-19-4c-4.8,0-9.4,0.8-13.9,2.4c-4.5,1.6-8.5,3.8-12.1,6.6c-3.6,2.8-6.6,6.1-9,9.9
			c-2.4,3.8-3.9,8-4.5,12.5c-0.7,5.3-0.2,10,1.6,14.1h46.3C7252.9,6916.3,7251.3,6915.8,7249.5,6915.5z"/>
		<path class="st27" d="M7337.2,6891.2h32.1c0.6,0,1-0.2,1.3-0.6c0.3-0.4,0.3-0.9,0-1.4l-8.8-14c-1-1.5-2.5-2.3-4.4-2.3h-62.5
			c-0.5,0-0.9,0.2-1.3,0.5c-0.4,0.3-0.6,0.7-0.7,1.2l-2,14.8c-0.1,0.5,0,0.9,0.3,1.2c0.3,0.3,0.7,0.5,1.2,0.5h26.5l-3.5,25.6h18.3
			L7337.2,6891.2z"/>
		<path class="st27" d="M7308,6972c-0.2,1.2,0.3,1.7,1.5,1.7h14.8c1.2,0,1.8-0.6,2-1.7l6.2-46h-18.3L7308,6972z"/>
	</g>
	<linearGradient id="SVGID_18_" gradientUnits="userSpaceOnUse" x1="6294.2871" y1="7070.2021" x2="6401.5215" y2="7070.2021">
		<stop  offset="0" style="stop-color:#00F9FF"/>
		<stop  offset="1" style="stop-color:#00FFC3"/>
	</linearGradient>
	<rect x="6294.3" y="7021.9" class="st28" width="107.2" height="96.5"/>
</g>
<g id="Layer_3" class="st0">
	<g class="st7">
		<g>
			<linearGradient id="SVGID_19_" gradientUnits="userSpaceOnUse" x1="7100.9106" y1="7126.0518" x2="7252.5083" y2="7126.0518">
				<stop  offset="0" style="stop-color:#00F9FF"/>
				<stop  offset="1" style="stop-color:#00FFC3"/>
			</linearGradient>
			<path class="st29" d="M7250.2,7114.5l-3,23.1h-141.9l20.6-23.1H7250.2 M7252.5,7112.5H7125l-24.1,27.1H7249L7252.5,7112.5
				L7252.5,7112.5z"/>
		</g>
		<g>
			<linearGradient id="SVGID_20_" gradientUnits="userSpaceOnUse" x1="7075.291" y1="7184.4414" x2="7198.6196" y2="7184.4414">
				<stop  offset="0" style="stop-color:#00F9FF"/>
				<stop  offset="1" style="stop-color:#00FFC3"/>
			</linearGradient>
			<path class="st30" d="M7160.7,7144.4l-2.6,19.8c-0.1,0.6,0.1,1.1,0.5,1.6c0.4,0.4,0.9,0.7,1.5,0.7h36.3l-3,23.1h-36.8
				c-1,0-1.9,0.7-2,1.7l-4.3,33.1h-23.2l4.2-32.6c0.1-0.6-0.1-1.1-0.5-1.6c-0.4-0.4-0.9-0.7-1.5-0.7h-51.8l3.2-24.3l18.6-20.9h28.7
				l-16.6,18.7c-0.5,0.6-0.7,1.4-0.3,2.1c0.3,0.7,1,1.2,1.8,1.2h20c1,0,1.9-0.7,2-1.7l2.6-20.3H7160.7 M7163,7142.4h-27.2l-2.9,22.1
				h-20l19.6-22.1h-34.1l-19.6,22.1l-3.5,27.1h54.1l-4.5,34.9h27.2l4.5-34.9h38.5l3.5-27.1h-38.5L7163,7142.4L7163,7142.4z"/>
		</g>
		<g>
			<linearGradient id="SVGID_21_" gradientUnits="userSpaceOnUse" x1="7199.5747" y1="7195.4751" x2="7267.6309" y2="7195.4751">
				<stop  offset="0" style="stop-color:#00F9FF"/>
				<stop  offset="1" style="stop-color:#00FFC3"/>
			</linearGradient>
			<path class="st31" d="M7265.4,7166.5l-4.2,32.6l-3.3,25.4h-25.4H7215l-13.3-15.2l5.6-42.8h23.2l-4.4,34c-0.1,0.6,0.1,1.1,0.5,1.6
				l6.8,7.7c0.4,0.4,0.9,0.7,1.5,0.7c0.2,0,0.4,0,0.6-0.1c0.8-0.2,1.3-0.9,1.4-1.7l5.5-42.2H7265.4 M7267.6,7164.5h-27.2l-5.7,43.9
				l-6.8-7.7l4.7-36.3h-27.2l-5.9,45.5l14.5,16.5h18.3h27.2l3.5-27.1L7267.6,7164.5L7267.6,7164.5z"/>
		</g>
		<g>
			<linearGradient id="SVGID_22_" gradientUnits="userSpaceOnUse" x1="7335.6875" y1="7195.4751" x2="7267.6309" y2="7195.4751">
				<stop  offset="0" style="stop-color:#00F9FF"/>
				<stop  offset="1" style="stop-color:#00FFC3"/>
			</linearGradient>
			<path class="st32" d="M7320.3,7166.5l13.3,15.2l-5.6,42.8h-23.2l4.4-34c0.1-0.6-0.1-1.1-0.5-1.6l-6.8-7.7
				c-0.4-0.4-0.9-0.7-1.5-0.7c-0.2,0-0.4,0-0.6,0.1c-0.8,0.2-1.3,0.9-1.4,1.7l-5.5,42.2h-23.2l4.2-32.6l3.3-25.4h25.4H7320.3
				 M7321.2,7164.5h-18.3h-27.2l-3.5,27.1l-4.5,34.9h27.2l5.7-43.9l6.8,7.7l-4.7,36.3h27.2l5.9-45.5L7321.2,7164.5L7321.2,7164.5z"
				/>
		</g>
		<g class="st0">
			<linearGradient id="SVGID_23_" gradientUnits="userSpaceOnUse" x1="7334.689" y1="7195.4751" x2="7267.5269" y2="7195.4751">
				<stop  offset="0" style="stop-color:#00F9FF"/>
				<stop  offset="1" style="stop-color:#00FFC3"/>
			</linearGradient>
			<path class="st33" d="M7313.2,7166.5l19.4,22.1l-4.7,36h-23.2l3.2-24.9c0.1-0.6-0.1-1.1-0.5-1.6l-6.8-7.8
				c-0.4-0.4-0.9-0.7-1.5-0.7c-0.2,0-0.4,0-0.6,0.1c-0.8,0.2-1.3,0.9-1.4,1.7l-4.3,33.1h-23.2l4.2-32.6l3.3-25.4h25.4H7313.2
				 M7314.1,7164.5h-11.3h-27.2l-3.5,27.1l-4.5,34.9h27.2l4.5-34.9l6.8,7.8l-3.5,27.1h27.2l5-38.6L7314.1,7164.5L7314.1,7164.5z"/>
		</g>
		<g class="st0">
			<linearGradient id="SVGID_24_" gradientUnits="userSpaceOnUse" x1="7267.6299" y1="7195.4751" x2="7334.5391" y2="7195.4751">
				<stop  offset="0" style="stop-color:#00F9FF"/>
				<stop  offset="1" style="stop-color:#00FFC3"/>
			</linearGradient>
			<path class="st34" d="M7310.7,7166.5c6.6,0,12.6,2.6,16.6,7.2c4.1,4.7,5.9,11,5,17.7l-4.3,33.1h-23.2l3.2-24.9
				c0.3-2.7-0.4-5.2-2.1-7.1c-1.7-1.9-4-2.9-6.7-2.9c-1,0-1.9,0.7-2,1.7l-4.3,33.1h-23.2l4.2-32.6l3.3-25.4h25.4H7310.7
				 M7310.7,7164.5h-7.8h-27.2l-3.5,27.1l-4.5,34.9h27.2l4.5-34.9l0,0c4.3,0,7.3,3.5,6.8,7.8l-3.5,27.1h27.2l4.5-34.9l0,0
				C7336.3,7176.6,7325.7,7164.5,7310.7,7164.5L7310.7,7164.5z"/>
		</g>
	</g>
	<g class="st7">
		<path class="st27" d="M7173.6,7064.9c0-0.3-0.1-0.5-0.4-0.5h-4.3c-0.1,0-0.3,0-0.4,0.1c-0.1,0.1-0.2,0.2-0.2,0.4l-1.7,12.2h5.3
			L7173.6,7064.9z"/>
		<path class="st27" d="M7165.5,7085.1c-0.1,1-0.6,2-1.4,2.7s-1.7,1.2-2.8,1.3c-1.3,0.1-2.3-0.3-3-1.1c-0.2-0.2-0.4-0.2-0.7,0
			l-3.7,2.8c-0.3,0.3-0.3,0.5-0.1,0.8c0.8,0.9,1.7,1.7,2.8,2.2c1.1,0.5,2.4,0.8,3.8,0.7c1.3,0,2.5-0.3,3.7-0.8
			c1.2-0.5,2.2-1.2,3.2-2.1c0.9-0.9,1.7-1.9,2.3-3c0.6-1.2,1-2.4,1.2-3.7l0.7-5.2h-5.4L7165.5,7085.1z"/>
		<path class="st27" d="M7193.8,7083.2c-0.1,0.8-0.4,1.6-0.8,2.4c-0.4,0.7-1,1.4-1.6,1.9c-0.6,0.5-1.4,0.9-2.2,1.2
			c-0.8,0.3-1.6,0.4-2.5,0.3c-0.7-0.1-1.4-0.3-2-0.6c-0.6-0.3-1.1-0.8-1.5-1.3c-0.4-0.5-0.7-1.2-0.8-1.9c-0.2-0.7-0.2-1.4-0.1-2.2
			l0.4-3.2h-5.3l-0.4,3.1c-0.2,1.6-0.1,3.1,0.3,4.4c0.4,1.4,1,2.6,1.9,3.7c0.9,1.1,2,1.9,3.3,2.5c1.3,0.6,2.7,0.9,4.3,0.9
			c1.5,0,3-0.3,4.4-0.9c1.4-0.6,2.7-1.4,3.8-2.4c1.1-1,2.1-2.2,2.8-3.5c0.8-1.3,1.2-2.8,1.4-4.3l0.5-3.4h-5.4L7193.8,7083.2z"/>
		<path class="st27" d="M7201.7,7064.8c0-0.1,0-0.3-0.1-0.4c-0.1-0.1-0.2-0.1-0.3-0.1h-4.3c-0.1,0-0.3,0-0.4,0.1
			c-0.1,0.1-0.2,0.2-0.2,0.4l-1.7,12.3h5.3L7201.7,7064.8z"/>
		<path class="st27" d="M7184.7,7064.8c0-0.1,0-0.3-0.1-0.4c-0.1-0.1-0.2-0.1-0.3-0.1h-4.3c-0.1,0-0.3,0-0.4,0.1
			c-0.1,0.1-0.2,0.2-0.2,0.4l-1.7,12.3h5.3L7184.7,7064.8z"/>
		<path class="st27" d="M7212.4,7081.5l4,0.8c1.1,0.2,2,0.7,2.5,1.3c0.5,0.6,0.7,1.4,0.6,2.2c-0.1,1.1-0.7,1.9-1.6,2.6
			c-0.9,0.7-2.1,1-3.7,1c-0.7,0-1.4-0.1-2-0.3c-0.6-0.2-1.2-0.4-1.7-0.8c-0.5-0.3-1-0.7-1.4-1c-0.4-0.4-0.8-0.8-1.2-1.1
			c-0.1-0.1-0.2-0.2-0.4-0.1c-0.2,0-0.3,0.1-0.4,0.2l-3.1,3.4c-0.2,0.3-0.3,0.5-0.1,0.7c0.4,0.5,0.8,1,1.4,1.5
			c0.6,0.5,1.3,0.9,2.1,1.3c0.8,0.4,1.7,0.7,2.7,1c1,0.3,2.1,0.4,3.3,0.4c1.7,0,3.3-0.3,4.7-0.8c1.4-0.5,2.6-1.2,3.6-2.1
			c1-0.9,1.9-1.9,2.5-2.9c0.6-1.1,1-2.2,1.1-3.3c0.1-1,0.1-2-0.1-3c-0.2-0.9-0.6-1.8-1.2-2.5c0,0-0.1-0.1-0.1-0.1h-15.5
			C7209.6,7080.6,7210.9,7081.2,7212.4,7081.5z"/>
		<path class="st27" d="M7218.4,7076.8l-4-0.8c-1-0.2-1.8-0.6-2.2-1.2c-0.5-0.6-0.6-1.3-0.5-2.1c0.1-0.5,0.2-1,0.5-1.4
			c0.3-0.4,0.6-0.8,1.1-1.2c0.4-0.3,1-0.6,1.6-0.8c0.6-0.2,1.3-0.3,2-0.3c0.6,0,1.2,0.1,1.7,0.2c0.5,0.1,1,0.3,1.5,0.6
			c0.5,0.2,0.9,0.5,1.2,0.8c0.3,0.3,0.6,0.6,0.8,0.8c0.1,0.1,0.2,0.2,0.4,0.2s0.3-0.1,0.4-0.2l3.3-3c0.3-0.2,0.3-0.4,0.1-0.7
			c-0.7-1-1.8-1.9-3.3-2.7c-1.5-0.8-3.4-1.2-5.6-1.2c-1.4,0-2.8,0.2-4.1,0.7c-1.3,0.5-2.5,1.1-3.5,1.9c-1.1,0.8-1.9,1.8-2.6,2.9
			c-0.7,1.1-1.1,2.3-1.3,3.7c-0.2,1.6-0.1,2.9,0.5,4.1h13.5C7219.4,7077,7218.9,7076.9,7218.4,7076.8z"/>
		<path class="st27" d="M7244,7069.7h9.4c0.2,0,0.3-0.1,0.4-0.2c0.1-0.1,0.1-0.3,0-0.4l-2.6-4.1c-0.3-0.4-0.7-0.7-1.3-0.7h-18.3
			c-0.1,0-0.3,0-0.4,0.1c-0.1,0.1-0.2,0.2-0.2,0.4l-0.6,4.3c0,0.1,0,0.3,0.1,0.4c0.1,0.1,0.2,0.1,0.3,0.1h7.8l-1,7.5h5.3
			L7244,7069.7z"/>
		<path class="st27" d="M7235.5,7093.3c0,0.3,0.1,0.5,0.4,0.5h4.3c0.3,0,0.5-0.2,0.6-0.5l1.8-13.5h-5.3L7235.5,7093.3z"/>
	</g>
	<g class="st7">
		<g>
			<text transform="matrix(1 0 0 1 6771.1514 7324.542)" class="st25 st35">COMEDY</text>
		</g>
		<g>
			<text transform="matrix(1 0 0 1 6767.1514 7320.542)" class="st36 st25 st35">COMEDY</text>
		</g>
	</g>
	<g class="st7">
		<g>
			<text transform="matrix(1 0 0 1 7121.4746 7324.5425)" class="st25 st35">GAMING</text>
		</g>
		<g>
			<text transform="matrix(1 0 0 1 7117.4746 7320.5425)" class="st36 st25 st35">GAMING</text>
		</g>
	</g>
	<g class="st7">
		<g>
			<text transform="matrix(1 0 0 1 7565.8179 7324.5425)" class="st25 st35">fUN</text>
		</g>
		<g>
			<text transform="matrix(1 0 0 1 7561.8179 7320.5425)" class="st36 st25 st35">fUN</text>
		</g>
	</g>
	<g class="st7">
		<linearGradient id="SVGID_25_" gradientUnits="userSpaceOnUse" x1="6589.436" y1="7352.4004" x2="6625.6914" y2="7352.4004">
			<stop  offset="0" style="stop-color:#0F94EF"/>
			<stop  offset="1" style="stop-color:#00EDAF"/>
		</linearGradient>
		<rect x="6589.4" y="7342.8" class="st37" width="36.3" height="19.3"/>
		<linearGradient id="SVGID_26_" gradientUnits="userSpaceOnUse" x1="6589.436" y1="7328.4004" x2="6625.6914" y2="7328.4004">
			<stop  offset="0" style="stop-color:#0F94EF"/>
			<stop  offset="1" style="stop-color:#00EDAF"/>
		</linearGradient>
		<rect x="6589.4" y="7318.8" class="st38" width="36.3" height="19.3"/>
		<linearGradient id="SVGID_27_" gradientUnits="userSpaceOnUse" x1="6589.436" y1="7304.4004" x2="6625.6914" y2="7304.4004">
			<stop  offset="0" style="stop-color:#0F94EF"/>
			<stop  offset="1" style="stop-color:#00EDAF"/>
		</linearGradient>
		<rect x="6589.4" y="7294.8" class="st39" width="36.3" height="19.3"/>
		<linearGradient id="SVGID_28_" gradientUnits="userSpaceOnUse" x1="6589.436" y1="7280.4004" x2="6625.6914" y2="7280.4004">
			<stop  offset="0" style="stop-color:#0F94EF"/>
			<stop  offset="1" style="stop-color:#00EDAF"/>
		</linearGradient>
		<rect x="6589.4" y="7270.8" class="st40" width="36.3" height="19.3"/>
	</g>
	<g class="st7">
		<linearGradient id="SVGID_29_" gradientUnits="userSpaceOnUse" x1="6638.9683" y1="7208.4004" x2="6675.2236" y2="7208.4004">
			<stop  offset="0" style="stop-color:#0F94EF"/>
			<stop  offset="1" style="stop-color:#00EDAF"/>
		</linearGradient>
		<rect x="6639" y="7198.8" class="st41" width="36.3" height="19.3"/>
		<linearGradient id="SVGID_30_" gradientUnits="userSpaceOnUse" x1="6638.9683" y1="7184.4004" x2="6675.2236" y2="7184.4004">
			<stop  offset="0" style="stop-color:#0F94EF"/>
			<stop  offset="1" style="stop-color:#00EDAF"/>
		</linearGradient>
		<rect x="6639" y="7174.8" class="st42" width="36.3" height="19.3"/>
		<linearGradient id="SVGID_31_" gradientUnits="userSpaceOnUse" x1="6638.9683" y1="7352.4004" x2="6675.2236" y2="7352.4004">
			<stop  offset="0" style="stop-color:#0F94EF"/>
			<stop  offset="1" style="stop-color:#00EDAF"/>
		</linearGradient>
		<rect x="6639" y="7342.8" class="st43" width="36.3" height="19.3"/>
		<linearGradient id="SVGID_32_" gradientUnits="userSpaceOnUse" x1="6638.9683" y1="7328.4004" x2="6675.2236" y2="7328.4004">
			<stop  offset="0" style="stop-color:#0F94EF"/>
			<stop  offset="1" style="stop-color:#00EDAF"/>
		</linearGradient>
		<rect x="6639" y="7318.8" class="st44" width="36.3" height="19.3"/>
		<linearGradient id="SVGID_33_" gradientUnits="userSpaceOnUse" x1="6638.9683" y1="7304.4004" x2="6675.2236" y2="7304.4004">
			<stop  offset="0" style="stop-color:#0F94EF"/>
			<stop  offset="1" style="stop-color:#00EDAF"/>
		</linearGradient>
		<rect x="6639" y="7294.8" class="st45" width="36.3" height="19.3"/>
		<linearGradient id="SVGID_34_" gradientUnits="userSpaceOnUse" x1="6638.9683" y1="7280.4004" x2="6675.2236" y2="7280.4004">
			<stop  offset="0" style="stop-color:#0F94EF"/>
			<stop  offset="1" style="stop-color:#00EDAF"/>
		</linearGradient>
		<rect x="6639" y="7270.8" class="st46" width="36.3" height="19.3"/>
		<linearGradient id="SVGID_35_" gradientUnits="userSpaceOnUse" x1="6638.9683" y1="7256.4004" x2="6675.2236" y2="7256.4004">
			<stop  offset="0" style="stop-color:#0F94EF"/>
			<stop  offset="1" style="stop-color:#00EDAF"/>
		</linearGradient>
		<rect x="6639" y="7246.8" class="st47" width="36.3" height="19.3"/>
		<linearGradient id="SVGID_36_" gradientUnits="userSpaceOnUse" x1="6638.9683" y1="7232.4004" x2="6675.2236" y2="7232.4004">
			<stop  offset="0" style="stop-color:#0F94EF"/>
			<stop  offset="1" style="stop-color:#00EDAF"/>
		</linearGradient>
		<rect x="6639" y="7222.8" class="st48" width="36.3" height="19.3"/>
		<linearGradient id="SVGID_37_" gradientUnits="userSpaceOnUse" x1="6638.9683" y1="7328.4004" x2="6675.2236" y2="7328.4004">
			<stop  offset="0" style="stop-color:#0F94EF"/>
			<stop  offset="1" style="stop-color:#00EDAF"/>
		</linearGradient>
		<rect x="6639" y="7318.8" class="st49" width="36.3" height="19.3"/>
		<linearGradient id="SVGID_38_" gradientUnits="userSpaceOnUse" x1="6638.9683" y1="7304.4004" x2="6675.2236" y2="7304.4004">
			<stop  offset="0" style="stop-color:#0F94EF"/>
			<stop  offset="1" style="stop-color:#00EDAF"/>
		</linearGradient>
		<rect x="6639" y="7294.8" class="st50" width="36.3" height="19.3"/>
		<linearGradient id="SVGID_39_" gradientUnits="userSpaceOnUse" x1="6638.9683" y1="7280.4004" x2="6675.2236" y2="7280.4004">
			<stop  offset="0" style="stop-color:#0F94EF"/>
			<stop  offset="1" style="stop-color:#00EDAF"/>
		</linearGradient>
		<rect x="6639" y="7270.8" class="st51" width="36.3" height="19.3"/>
		<linearGradient id="SVGID_40_" gradientUnits="userSpaceOnUse" x1="6638.9683" y1="7256.4004" x2="6675.2236" y2="7256.4004">
			<stop  offset="0" style="stop-color:#0F94EF"/>
			<stop  offset="1" style="stop-color:#00EDAF"/>
		</linearGradient>
		<rect x="6639" y="7246.8" class="st52" width="36.3" height="19.3"/>
		<linearGradient id="SVGID_41_" gradientUnits="userSpaceOnUse" x1="6638.9683" y1="7232.4004" x2="6675.2236" y2="7232.4004">
			<stop  offset="0" style="stop-color:#0F94EF"/>
			<stop  offset="1" style="stop-color:#00EDAF"/>
		</linearGradient>
		<rect x="6639" y="7222.8" class="st53" width="36.3" height="19.3"/>
	</g>
	<g class="st7">
		<linearGradient id="SVGID_42_" gradientUnits="userSpaceOnUse" x1="6689.0107" y1="7352.4004" x2="6725.2661" y2="7352.4004">
			<stop  offset="0" style="stop-color:#0F94EF"/>
			<stop  offset="1" style="stop-color:#00EDAF"/>
		</linearGradient>
		<rect x="6689" y="7342.8" class="st54" width="36.3" height="19.3"/>
		<linearGradient id="SVGID_43_" gradientUnits="userSpaceOnUse" x1="6689.0107" y1="7328.4004" x2="6725.2661" y2="7328.4004">
			<stop  offset="0" style="stop-color:#0F94EF"/>
			<stop  offset="1" style="stop-color:#00EDAF"/>
		</linearGradient>
		<rect x="6689" y="7318.8" class="st55" width="36.3" height="19.3"/>
		<linearGradient id="SVGID_44_" gradientUnits="userSpaceOnUse" x1="6689.0107" y1="7304.4004" x2="6725.2661" y2="7304.4004">
			<stop  offset="0" style="stop-color:#0F94EF"/>
			<stop  offset="1" style="stop-color:#00EDAF"/>
		</linearGradient>
		<rect x="6689" y="7294.8" class="st56" width="36.3" height="19.3"/>
		<linearGradient id="SVGID_45_" gradientUnits="userSpaceOnUse" x1="6689.0107" y1="7280.4004" x2="6725.2661" y2="7280.4004">
			<stop  offset="0" style="stop-color:#0F94EF"/>
			<stop  offset="1" style="stop-color:#00EDAF"/>
		</linearGradient>
		<rect x="6689" y="7270.8" class="st57" width="36.3" height="19.3"/>
		<linearGradient id="SVGID_46_" gradientUnits="userSpaceOnUse" x1="6689.0107" y1="7256.4004" x2="6725.2661" y2="7256.4004">
			<stop  offset="0" style="stop-color:#0F94EF"/>
			<stop  offset="1" style="stop-color:#00EDAF"/>
		</linearGradient>
		<rect x="6689" y="7246.8" class="st58" width="36.3" height="19.3"/>
		<linearGradient id="SVGID_47_" gradientUnits="userSpaceOnUse" x1="6689.0107" y1="7232.4004" x2="6725.2661" y2="7232.4004">
			<stop  offset="0" style="stop-color:#0F94EF"/>
			<stop  offset="1" style="stop-color:#00EDAF"/>
		</linearGradient>
		<rect x="6689" y="7222.8" class="st59" width="36.3" height="19.3"/>
		<linearGradient id="SVGID_48_" gradientUnits="userSpaceOnUse" x1="6689.0107" y1="7328.4004" x2="6725.2661" y2="7328.4004">
			<stop  offset="0" style="stop-color:#0F94EF"/>
			<stop  offset="1" style="stop-color:#00EDAF"/>
		</linearGradient>
		<rect x="6689" y="7318.8" class="st60" width="36.3" height="19.3"/>
		<linearGradient id="SVGID_49_" gradientUnits="userSpaceOnUse" x1="6689.0107" y1="7304.4004" x2="6725.2661" y2="7304.4004">
			<stop  offset="0" style="stop-color:#0F94EF"/>
			<stop  offset="1" style="stop-color:#00EDAF"/>
		</linearGradient>
		<rect x="6689" y="7294.8" class="st61" width="36.3" height="19.3"/>
		<linearGradient id="SVGID_50_" gradientUnits="userSpaceOnUse" x1="6689.0107" y1="7280.4004" x2="6725.2661" y2="7280.4004">
			<stop  offset="0" style="stop-color:#0F94EF"/>
			<stop  offset="1" style="stop-color:#00EDAF"/>
		</linearGradient>
		<rect x="6689" y="7270.8" class="st62" width="36.3" height="19.3"/>
		<linearGradient id="SVGID_51_" gradientUnits="userSpaceOnUse" x1="6689.0107" y1="7256.4004" x2="6725.2661" y2="7256.4004">
			<stop  offset="0" style="stop-color:#0F94EF"/>
			<stop  offset="1" style="stop-color:#00EDAF"/>
		</linearGradient>
		<rect x="6689" y="7246.8" class="st63" width="36.3" height="19.3"/>
		<linearGradient id="SVGID_52_" gradientUnits="userSpaceOnUse" x1="6689.0107" y1="7232.4004" x2="6725.2661" y2="7232.4004">
			<stop  offset="0" style="stop-color:#0F94EF"/>
			<stop  offset="1" style="stop-color:#00EDAF"/>
		</linearGradient>
		<rect x="6689" y="7222.8" class="st64" width="36.3" height="19.3"/>
	</g>
	
		<linearGradient id="SVGID_53_" gradientUnits="userSpaceOnUse" x1="7639.2339" y1="7103.2241" x2="7836.8613" y2="7103.2241" gradientTransform="matrix(0.9821 0.1882 -0.1882 0.9821 1475.3979 -1330.2744)">
		<stop  offset="0" style="stop-color:#FFFFFF"/>
		<stop  offset="1" style="stop-color:#00EDAF"/>
	</linearGradient>
	
		<ellipse transform="matrix(0.1882 -0.9821 0.9821 0.1882 -693.9398 13365.416)" class="st65" cx="7738.1" cy="7102.5" rx="38.8" ry="98.3"/>
	
		<linearGradient id="SVGID_54_" gradientUnits="userSpaceOnUse" x1="7639.2339" y1="7088.5273" x2="7836.8613" y2="7088.5273" gradientTransform="matrix(0.9821 0.1882 -0.1882 0.9821 1475.3979 -1330.2744)">
		<stop  offset="0" style="stop-color:#FFFFFF"/>
		<stop  offset="1" style="stop-color:#00EDAF"/>
	</linearGradient>
	
		<ellipse transform="matrix(0.1882 -0.9821 0.9821 0.1882 -677.5178 13356.416)" class="st66" cx="7740.9" cy="7088.1" rx="38.8" ry="98.3"/>
	
		<linearGradient id="SVGID_55_" gradientUnits="userSpaceOnUse" x1="7639.2339" y1="7073.8301" x2="7836.8613" y2="7073.8301" gradientTransform="matrix(0.9821 0.1882 -0.1882 0.9821 1475.3979 -1330.2744)">
		<stop  offset="0" style="stop-color:#FFFFFF"/>
		<stop  offset="1" style="stop-color:#00EDAF"/>
	</linearGradient>
	
		<ellipse transform="matrix(0.1882 -0.9821 0.9821 0.1882 -661.0958 13347.415)" class="st67" cx="7743.6" cy="7073.6" rx="38.8" ry="98.3"/>
</g>
</svg>
